<svg width="225" height="141" viewBox="0 0 225 141" fill="none" xmlns="http://www.w3.org/2000/svg">
<path d="M162.848 140.195C163.361 140.195 163.874 140.148 164.386 140.099C165.169 140.023 165.957 139.973 166.735 139.852C168.357 139.6 169.967 139.321 171.57 138.935C174.726 138.174 177.829 137.029 180.808 135.576C186.597 132.751 191.933 128.72 196.542 123.691C198.924 121.092 201.123 118.25 203.061 115.173C204.095 113.534 205.035 111.832 205.963 110.108C206.872 108.419 207.62 106.615 208.39 104.834C209.161 103.054 209.752 101.175 210.379 99.3213C210.617 98.6167 210.806 97.8902 211.009 97.1696C211.167 96.6064 211.346 96.0439 211.47 95.4681C211.842 93.8729 212.196 92.2817 212.503 90.6672C212.734 89.4579 212.898 88.2346 213.077 87.0133C213.292 85.5515 213.411 84.0526 213.514 82.5743C213.786 78.6932 213.743 74.7809 213.405 70.9071C212.744 63.3494 210.964 55.8761 208.025 49.1174C207.245 47.3236 206.429 45.5531 205.505 43.8562C204.741 42.451 203.975 41.0171 203.1 39.7042C201.149 36.7774 199.12 33.9801 196.807 31.4459C192.008 26.1841 186.387 21.9264 180.293 19.1245C178.742 18.4119 177.176 17.7597 175.573 17.2271C174.874 16.9953 174.179 16.7556 173.471 16.565C173.193 16.49 172.915 16.4149 172.637 16.3399C172.625 16.3365 172.54 16.7749 172.553 16.7782C175.534 17.611 178.509 18.6922 181.31 20.1798C184.285 21.7591 187.144 23.5728 189.844 25.7431C192.543 27.9121 195.075 30.3813 197.392 33.1042C201.866 38.3613 205.457 44.5815 208.095 51.3608C210.778 58.2503 212.288 65.7841 212.658 73.3557C212.824 76.752 212.82 80.2426 212.446 83.6209C212.248 85.4161 212.023 87.1892 211.749 88.9717C211.347 91.585 210.73 94.1718 210.006 96.6815C208.971 100.268 207.705 103.796 206.101 107.08C204.393 110.575 202.486 113.91 200.263 116.977C198.168 119.868 195.836 122.591 193.307 124.946C191.958 126.201 190.588 127.422 189.141 128.515C188.096 129.304 187.046 130.047 185.97 130.775C183.134 132.695 180.064 134.208 176.964 135.408C173.833 136.62 170.594 137.419 167.329 137.897C165.89 138.108 164.435 138.265 162.984 138.301C162.484 138.313 161.978 138.367 161.511 138.609C161.141 138.798 160.682 139.272 161.12 139.708C161.562 140.151 162.301 140.22 162.848 140.195Z" fill="url(#paint0_linear_4871_729)"/>
<path d="M183.485 133.814C184.206 133.458 184.962 133.141 185.755 133.198C186.138 133.227 186.517 133.35 186.895 133.427C187.336 133.518 187.778 133.608 188.219 133.698C189.881 134.033 191.547 134.31 193.216 134.58C193.997 134.706 194.784 134.784 195.569 134.88C196.173 134.953 196.781 135.056 197.389 135.079C198.974 135.139 200.57 135.118 202.152 134.978C203.559 134.853 205.036 134.757 206.395 134.269C205.033 135.093 203.484 135.4 201.98 135.606C200.365 135.826 198.697 135.821 197.077 135.673C196.975 135.663 196.873 135.653 196.771 135.643C196.711 135.699 196.65 135.753 196.59 135.807C196.454 135.93 196.316 136.051 196.176 136.171C195.83 136.468 195.477 136.754 195.114 137.022C194.482 137.487 193.727 137.943 192.982 138.057C192.139 138.188 191.276 138.147 190.432 138.077C189.572 138.006 188.717 137.88 187.873 137.674C186.214 137.268 184.609 136.687 183.045 135.914C182.71 135.749 182.377 135.576 182.046 135.394C181.95 135.341 181.855 135.288 181.76 135.234C181.597 135.141 181.436 135.275 181.272 135.347C180.628 135.626 179.879 135.864 179.307 136.327C179.669 135.806 180.196 135.457 180.695 135.158C181.591 134.621 182.54 134.21 183.485 133.814C183.588 133.764 181.142 134.795 183.485 133.814Z" fill="url(#paint1_linear_4871_729)"/>
<path d="M192.572 127.234C193.193 126.687 193.914 126.224 194.694 126.125C195.536 126.018 196.407 126.064 197.253 126.036C198.917 125.983 200.589 125.884 202.248 125.716C202.969 125.643 203.689 125.566 204.408 125.488C204.832 125.441 205.267 125.421 205.688 125.338C207.227 125.033 208.763 124.677 210.269 124.193C211.569 123.776 212.931 123.371 214.133 122.633C212.906 123.755 211.397 124.393 209.929 124.919C209.138 125.202 208.319 125.4 207.506 125.583C207.102 125.675 206.695 125.759 206.288 125.834C206.096 125.869 205.904 125.899 205.712 125.926C205.615 125.939 205.518 125.952 205.421 125.964C205.29 125.981 205.258 126.065 205.173 126.178C204.642 126.882 204.085 127.582 203.454 128.162C202.832 128.734 202.2 129.082 201.44 129.3C199.815 129.765 198.1 129.907 196.433 129.83C194.979 129.763 193.542 129.562 192.118 129.208C191.853 129.141 191.589 129.071 191.326 128.994C191.253 128.974 191.181 128.952 191.109 128.93C191.007 128.899 190.767 129.166 190.677 129.236C190.147 129.657 189.514 130.004 189.062 130.548C189.396 129.823 189.987 129.315 190.529 128.824C191.179 128.235 191.873 127.735 192.572 127.234C193.258 126.629 192.062 127.6 192.572 127.234Z" fill="url(#paint2_linear_4871_729)"/>
<path d="M200.352 118.624C200.871 117.95 201.504 117.346 202.249 117.076C203.038 116.789 203.877 116.632 204.683 116.416C206.295 115.985 207.901 115.476 209.488 114.928C210.554 114.558 211.649 114.245 212.686 113.774C214.191 113.091 215.67 112.347 217.108 111.482C218.037 110.922 219.026 110.366 219.84 109.582C218.831 110.967 217.367 111.983 215.994 112.772C215.25 113.2 214.487 113.58 213.717 113.933C213.37 114.093 213.02 114.248 212.668 114.392C212.482 114.468 212.295 114.539 212.107 114.605C212.013 114.797 211.917 114.987 211.819 115.175C211.407 115.966 210.97 116.766 210.417 117.429C209.847 118.11 209.155 118.494 208.416 118.862C206.862 119.635 205.167 120.086 203.498 120.336C202.304 120.515 201.105 120.606 199.901 120.576C199.716 120.571 199.53 120.564 199.345 120.555C199.11 120.541 198.877 120.965 198.716 121.158C198.352 121.597 197.905 122.021 197.616 122.539C197.779 121.942 198.115 121.415 198.445 120.936C199.024 120.105 199.684 119.353 200.352 118.624C200.628 118.265 198.677 120.45 200.352 118.624Z" fill="url(#paint3_linear_4871_729)"/>
<path d="M206.526 108.349C206.911 107.596 207.438 106.822 208.115 106.425C208.885 105.975 209.689 105.599 210.467 105.17C211.974 104.338 213.463 103.461 214.938 102.554C215.948 101.933 216.941 101.323 217.898 100.593C219.314 99.512 220.679 98.3584 221.978 97.0833C222.449 96.6211 222.938 96.1562 223.33 95.5977C222.572 97.1623 221.284 98.4713 220.073 99.5266C219.413 100.1 218.735 100.639 218.04 101.15C217.717 101.389 217.391 101.625 217.057 101.842C216.864 101.968 216.85 102.058 216.777 102.298C216.707 102.529 216.634 102.759 216.557 102.987C216.27 103.846 215.955 104.725 215.453 105.441C214.97 106.133 214.253 106.647 213.617 107.115C212.191 108.165 210.596 108.939 208.995 109.518C208.074 109.852 207.138 110.144 206.188 110.333C206.058 110.359 205.928 110.382 205.799 110.407C205.649 110.666 205.501 110.925 205.357 111.186C205.1 111.647 204.796 112.131 204.62 112.644C204.701 111.908 204.979 111.219 205.29 110.585C205.664 109.816 206.093 109.073 206.526 108.349C206.729 107.954 206.369 108.612 206.526 108.349Z" fill="url(#paint4_linear_4871_729)"/>
<path d="M210.836 96.8179C211.079 96.001 211.466 95.1144 212.073 94.5984C212.784 93.9967 213.499 93.401 214.194 92.7727C215.517 91.5793 216.834 90.3859 218.129 89.152C218.984 88.3378 219.797 87.5169 220.579 86.6044C221.756 85.2324 222.879 83.8092 223.894 82.2624C224.11 81.9317 224.332 81.5963 224.511 81.2344C224.016 82.797 223.106 84.2036 222.172 85.4283C221.611 86.1621 221.022 86.8674 220.411 87.5395C220.126 87.8536 219.836 88.1571 219.538 88.4527C219.417 88.5722 219.433 88.798 219.409 88.9793C219.378 89.2277 219.343 89.4747 219.304 89.7218C219.16 90.6263 218.988 91.5747 218.554 92.353C218.15 93.0749 217.568 93.7018 217.027 94.2743C215.902 95.4638 214.641 96.4945 213.317 97.3445C212.516 97.8579 211.696 98.3347 210.853 98.7432C210.753 98.7923 210.652 98.8408 210.55 98.8853C210.403 98.951 210.29 99.5076 210.229 99.6842C210.057 100.184 209.836 100.721 209.767 101.26C209.691 100.567 209.864 99.835 210.054 99.1875C210.29 98.3879 210.545 97.5942 210.836 96.8179C210.96 96.4028 210.625 97.3797 210.836 96.8179Z" fill="url(#paint5_linear_4871_729)"/>
<path d="M213.096 84.4995C213.207 83.6175 213.433 82.7209 213.959 82.0621C214.546 81.325 215.121 80.5732 215.69 79.8154C216.71 78.456 217.718 77.0846 218.704 75.6893C219.428 74.6639 220.115 73.6391 220.746 72.5281C221.66 70.9189 222.56 69.2739 223.236 67.5014C223.294 67.3486 223.351 67.1932 223.398 67.0352C223.155 68.8077 222.377 70.4434 221.583 71.943C221.151 72.7592 220.687 73.5475 220.185 74.3066C220.06 74.4965 219.933 74.6845 219.805 74.8717C219.817 75.0683 219.826 75.2649 219.834 75.4621C219.853 75.9768 219.865 76.4982 219.833 77.0135C219.774 77.9546 219.548 78.7143 219.137 79.5146C218.709 80.3467 218.214 81.1158 217.674 81.8483C216.616 83.2808 215.435 84.5446 214.144 85.6736C213.818 85.9598 213.486 86.2368 213.147 86.5011C213.065 86.5662 213.05 87.0078 213.031 87.1294C212.995 87.3598 212.96 87.5896 212.926 87.8207C212.877 88.1614 212.808 88.526 212.826 88.8733C212.636 88.2225 212.694 87.4754 212.771 86.8073C212.861 86.0316 212.953 85.2652 213.096 84.4995C213.122 84.2929 212.99 85.0699 213.096 84.4995Z" fill="url(#paint6_linear_4871_729)"/>
<path d="M213.232 71.9027C213.189 71.0579 213.272 70.176 213.647 69.4421C214.049 68.6572 214.466 67.8795 214.852 67.0819C215.597 65.5424 216.354 64.0117 217.066 62.4503C217.683 61.0975 218.249 59.7427 218.735 58.3135C219.263 56.7588 219.883 55.1065 220.084 53.4336C220.126 55.1211 219.655 56.7874 219.156 58.3454C218.862 59.2672 218.515 60.1571 218.138 61.0344C218.043 61.2556 217.932 61.4043 217.988 61.6487C218.035 61.8533 218.08 62.0591 218.122 62.265C218.226 62.7797 218.305 63.2991 218.333 63.829C218.439 65.751 217.485 67.6225 216.661 69.2044C215.884 70.6967 214.953 72.0687 213.936 73.3398C213.848 73.4521 213.757 73.563 213.667 73.6719C213.525 73.8426 213.595 74.1494 213.598 74.3799C213.607 74.9072 213.572 75.5029 213.69 76.0162C213.471 75.5905 213.395 75.0672 213.34 74.5811C213.243 73.6951 213.234 72.7953 213.232 71.9027C213.235 74.1082 213.212 71.5075 213.232 71.9027Z" fill="url(#paint7_linear_4871_729)"/>
<path d="M211.256 59.5351C211.075 58.7614 211.014 57.9232 211.244 57.1582C211.494 56.326 211.755 55.4972 211.991 54.6584C212.435 53.0758 212.889 51.4986 213.302 49.9047C213.663 48.5094 213.981 47.1227 214.21 45.6875C214.454 44.1607 214.776 42.5217 214.711 40.957C215.054 42.6957 214.782 44.6336 214.492 46.3576C214.414 46.8305 214.313 47.2987 214.208 47.7642C214.156 48 214.102 48.2351 214.045 48.4695C214.017 48.5904 213.987 48.7119 213.957 48.8328C214.002 48.9397 214.048 49.046 214.092 49.1536C214.439 49.9864 214.766 50.8882 214.827 51.8266C214.887 52.783 214.628 53.8429 214.404 54.7514C214.168 55.7084 213.883 56.6521 213.545 57.5659C213.236 58.4027 212.872 59.2136 212.487 60.0052C212.362 60.2642 212.232 60.5206 212.1 60.7743C212.055 60.8606 212.009 60.9456 211.964 61.0306C211.884 61.1768 211.893 61.206 211.934 61.3899C212.067 61.991 212.113 62.6684 212.349 63.2295C212.014 62.7985 211.856 62.2108 211.711 61.6642C211.523 60.9636 211.373 60.2563 211.256 59.5351C211.339 60.0484 211.172 59.1751 211.256 59.5351Z" fill="url(#paint8_linear_4871_729)"/>
<path d="M207.223 47.9077C206.934 47.2204 206.727 46.4912 206.826 45.7168C206.933 44.876 207.027 44.0326 207.117 43.1892C207.277 41.6757 207.44 40.1628 207.571 38.6453C207.689 37.2799 207.774 35.9304 207.77 34.5563C207.765 33.082 207.819 31.4868 207.526 30.043C207.835 30.8618 207.954 31.7564 208.032 32.6437C208.111 33.5495 208.148 34.472 208.126 35.3831C208.114 35.8381 208.092 36.293 208.064 36.7466C208.049 36.9803 208.032 37.2134 208.015 37.4472C208.13 37.6199 208.244 37.7945 208.354 37.9725C208.806 38.7031 209.263 39.5312 209.343 40.455C209.503 42.2966 209.262 44.1814 208.928 45.9778C208.759 46.8119 208.554 47.6348 208.316 48.4443C208.25 48.6701 208.182 48.8953 208.109 49.1184C208.011 49.4272 208.289 49.8297 208.407 50.1186C208.532 50.4287 208.645 50.7847 208.828 51.0556C208.445 50.7362 208.189 50.1983 207.958 49.7281C207.673 49.147 207.438 48.5307 207.223 47.9077C207.537 48.8162 207.157 47.751 207.223 47.9077Z" fill="url(#paint9_linear_4871_729)"/>
<path d="M201.309 37.481C200.911 36.9251 200.625 36.2982 200.589 35.5604C200.549 34.7555 200.503 33.9519 200.451 33.149C200.352 31.6354 200.259 30.1213 200.145 28.6091C200.057 27.4502 199.926 26.3092 199.737 25.1663C199.509 23.7936 199.317 22.3039 198.833 21.0195C199.632 22.3836 199.952 24.2239 200.185 25.8364C200.243 26.2986 200.299 26.7615 200.344 27.2257C200.367 27.4601 200.343 27.6574 200.497 27.8148C200.624 27.9463 200.749 28.0791 200.872 28.2152C201.399 28.803 201.896 29.4405 202.093 30.2846C202.521 32.1163 202.599 34.0196 202.534 35.9117C202.505 36.7286 202.424 37.5434 202.315 38.351C202.29 38.5436 202.301 38.5722 202.408 38.7382C202.525 38.9188 202.643 39.0981 202.764 39.2755C202.931 39.5212 203.098 39.7769 203.291 39.9947C202.431 39.5152 201.822 38.3842 201.309 37.481C201.741 38.2434 200.949 36.9783 201.309 37.481Z" fill="url(#paint10_linear_4871_729)"/>
<path d="M193.754 28.696C193.366 28.3281 193.001 27.8659 192.847 27.2934C192.647 26.5563 192.494 25.7972 192.319 25.0514C192.001 23.7012 191.678 22.3537 191.344 21.0096C191.086 19.9669 190.807 18.9461 190.461 17.9373C190.029 16.6755 189.615 15.3041 188.961 14.1758C189.87 15.243 190.425 16.7957 190.882 18.1944C191.007 18.5802 191.124 18.97 191.231 19.3639C191.276 19.5239 191.314 19.9038 191.435 19.9848C191.549 20.0619 191.662 20.1389 191.774 20.2192C192.27 20.5746 192.822 20.9797 193.16 21.5535C193.566 22.2428 193.809 23.15 194.032 23.9416C194.282 24.8302 194.444 25.7593 194.577 26.6818C194.692 27.4774 194.778 28.2763 194.814 29.0819C194.818 29.2008 194.823 29.319 194.826 29.4379C194.978 29.5979 195.13 29.7566 195.285 29.9127C195.499 30.1279 195.721 30.3809 195.973 30.5323C195.106 30.3424 194.382 29.3555 193.754 28.696C194.293 29.2625 193.35 28.3135 193.754 28.696Z" fill="url(#paint11_linear_4871_729)"/>
<path d="M184.884 21.8834C184.474 21.633 184.073 21.291 183.842 20.8049C183.561 20.2158 183.309 19.6041 183.048 19.0024C182.531 17.8104 182.012 16.6209 181.485 15.4355C181.106 14.5847 180.722 13.7513 180.276 12.9464C179.951 12.3593 179.619 11.7782 179.274 11.2064C178.967 10.6977 178.663 10.1498 178.278 9.71875C178.807 10.1033 179.234 10.7209 179.618 11.2894C180.049 11.9269 180.451 12.5997 180.803 13.3023C180.961 13.6151 181.112 13.9312 181.26 14.25C181.351 14.4453 181.389 14.4645 181.562 14.5343C181.727 14.6007 181.891 14.6724 182.053 14.7488C182.381 14.9035 182.725 15.0715 183.012 15.3219C183.276 15.5537 183.466 15.8658 183.656 16.1786C184.451 17.4816 185.029 18.9301 185.488 20.4383C185.656 20.9908 185.811 21.5507 185.943 22.1172C186.011 22.4147 186.28 22.5043 186.501 22.6498C186.719 22.7932 186.95 22.9666 187.193 23.0469C186.816 23.0549 186.448 22.861 186.116 22.6724C185.694 22.4333 185.283 22.171 184.884 21.8834C185.456 22.2958 184.457 21.6231 184.884 21.8834Z" fill="url(#paint12_linear_4871_729)"/>
<path d="M175.052 17.3377C174.019 17.007 173.467 15.9365 172.83 14.9981C172.18 14.0417 171.525 13.0907 170.869 12.1404C170.376 11.4278 169.871 10.7311 169.32 10.0796C168.658 9.29528 167.979 8.40736 167.196 7.78906C168.177 8.2918 169.049 9.27137 169.772 10.1852C169.991 10.4615 170.205 10.7451 170.414 11.0326C170.507 11.1608 170.615 11.3999 170.759 11.4191C170.905 11.4384 171.052 11.4616 171.199 11.4889C171.83 11.6064 172.377 11.7784 172.863 12.2845C173.842 13.3026 174.644 14.5272 175.329 15.8362C175.579 16.3137 175.815 16.8018 176.035 17.3006C176.059 17.3557 176.084 17.4108 176.107 17.4666C176.265 17.5191 176.422 17.5695 176.578 17.626C176.817 17.7123 177.07 17.8332 177.322 17.8538C176.981 17.9461 176.615 17.8445 176.28 17.7621C175.862 17.6625 175.453 17.5084 175.052 17.3377C175.634 17.5848 174.624 17.2009 175.052 17.3377Z" fill="url(#paint13_linear_4871_729)"/>
<path d="M183.086 132.812C183.742 132.43 184.374 131.851 184.767 131.11C185.179 130.334 185.381 129.346 185.615 128.478C186.118 126.621 186.502 124.718 186.752 122.79C186.963 121.163 187.045 119.513 187.133 117.872C187.241 115.897 187.265 113.93 187.272 111.952C187.274 111.395 187.232 110.821 187.287 110.266C187.043 111.06 186.983 111.969 186.923 112.805C186.855 113.76 186.826 114.718 186.776 115.675C186.727 116.661 186.702 117.649 186.641 118.635C186.635 118.747 186.627 118.861 186.621 118.974C186.612 119.121 186.589 119.106 186.492 119.18C186.353 119.288 186.215 119.399 186.08 119.513C185.74 119.801 185.415 120.113 185.1 120.437C184.828 120.716 184.566 121.027 184.381 121.396C184.184 121.789 184.075 122.254 183.935 122.679C183.632 123.597 183.381 124.536 183.134 125.478C182.635 127.381 182.147 129.287 181.654 131.193C181.527 131.681 181.403 132.17 181.282 132.657C181.221 132.899 181.172 133.459 180.97 133.566C180.279 133.933 179.515 134.422 178.756 134.563C179.319 134.652 179.904 134.496 180.436 134.298C181.371 133.952 182.25 133.408 183.086 132.812C183.184 132.754 180.988 134.311 183.086 132.812Z" fill="url(#paint14_linear_4871_729)"/>
<path d="M192.058 126.42C192.615 125.866 193.148 125.19 193.393 124.361C193.524 123.919 193.557 123.434 193.614 122.973C193.679 122.456 193.737 121.938 193.785 121.418C193.964 119.513 194.012 117.573 193.918 115.659C193.757 112.382 193.32 109.121 192.833 105.895C192.748 105.332 192.615 104.756 192.587 104.184C192.469 104.988 192.545 105.867 192.611 106.674C192.67 107.395 192.757 108.113 192.836 108.83C192.927 109.678 193.019 110.527 193.111 111.375C193.136 111.61 193.162 111.844 193.187 112.078C193.206 112.253 193.309 112.629 193.201 112.751C192.917 113.071 192.645 113.408 192.393 113.763C192.141 114.119 191.889 114.487 191.688 114.888C191.482 115.3 191.411 115.721 191.34 116.186C191.19 117.168 191.065 118.157 190.972 119.148C190.805 121.156 190.636 123.165 190.461 125.172C190.392 125.958 190.332 126.744 190.269 127.531C189.937 127.827 189.607 128.116 189.257 128.383C188.947 128.621 188.622 128.898 188.272 129.047C188.919 129.006 189.578 128.624 190.115 128.219C190.803 127.699 191.456 127.076 192.058 126.42C192.702 125.778 191.626 126.891 192.058 126.42Z" fill="url(#paint15_linear_4871_729)"/>
<path d="M199.77 118.013C200.279 117.274 200.739 116.377 200.72 115.39C200.699 114.405 200.653 113.421 200.579 112.439C200.426 110.544 200.117 108.655 199.702 106.818C198.985 103.647 198.04 100.547 197.042 97.4883C196.983 97.3037 196.924 97.117 196.882 96.9258C196.901 97.7851 197.113 98.6624 197.318 99.4813C197.542 100.373 197.789 101.258 198.034 102.142C198.158 102.593 198.283 103.045 198.41 103.495C198.471 103.713 198.533 103.932 198.594 104.149C198.643 104.327 198.827 104.746 198.734 104.9C198.29 105.638 197.868 106.448 197.619 107.31C197.362 108.193 197.514 109.256 197.548 110.172C197.586 111.189 197.663 112.204 197.753 113.216C197.876 115.03 198.047 116.841 198.203 118.651C198.22 118.848 198.237 119.044 198.254 119.239C198.259 119.304 198.264 119.368 198.27 119.433C198.28 119.548 198 119.826 197.931 119.916C197.551 120.418 197.142 120.996 196.646 121.344C197.143 121.204 197.585 120.821 197.966 120.433C198.654 119.73 199.235 118.881 199.77 118.013C200.025 117.643 198.443 120.167 199.77 118.013Z" fill="url(#paint16_linear_4871_729)"/>
<path d="M205.92 107.932C206.293 107.116 206.562 106.198 206.394 105.261C206.215 104.306 206.019 103.353 205.774 102.418C205.296 100.596 204.694 98.8281 203.98 97.1193C203.475 95.9073 202.919 94.7205 202.367 93.5371C201.962 92.6664 201.54 91.8117 201.104 90.963C200.724 90.2245 200.291 89.4919 199.977 88.7109C200.125 89.5245 200.446 90.3028 200.765 91.038C201.11 91.831 201.471 92.6166 201.835 93.3969C202.023 93.8001 202.21 94.2039 202.4 94.6063C202.498 94.8142 202.598 95.022 202.695 95.2293C202.744 95.3375 202.795 95.4451 202.843 95.5533C202.921 95.7267 202.946 95.7559 202.879 95.9319C202.562 96.7727 202.253 97.7177 202.214 98.6475C202.195 99.0984 202.309 99.5639 202.392 100C202.491 100.516 202.603 101.028 202.713 101.54C202.923 102.524 203.172 103.494 203.421 104.463C203.852 106.145 204.282 107.827 204.722 109.506C204.772 109.691 204.678 109.792 204.594 109.956C204.472 110.196 204.348 110.436 204.221 110.674C204.021 111.049 203.824 111.468 203.542 111.766C204.094 111.477 204.505 110.813 204.841 110.246C205.272 109.518 205.612 108.743 205.92 107.932C206.103 107.531 205.81 108.223 205.92 107.932Z" fill="url(#paint17_linear_4871_729)"/>
<path d="M210.246 96.5892C210.478 95.6747 210.55 94.7642 210.219 93.8709C209.882 92.9624 209.522 92.0692 209.112 91.2038C208.337 89.5714 207.484 88.0181 206.513 86.5404C205.848 85.527 205.156 84.5334 204.464 83.5459C203.935 82.7928 203.392 82.0589 202.838 81.3311C202.462 80.8363 202.043 80.3482 201.729 79.793C201.939 80.4651 202.314 81.0667 202.676 81.6319C203.159 82.3863 203.66 83.1282 204.172 83.8567C204.433 84.2279 204.692 84.5992 204.955 84.9691C205.079 85.1451 205.203 85.3217 205.324 85.5011C205.382 85.5861 205.439 85.6711 205.496 85.7561C205.58 85.8796 205.531 85.9633 205.503 86.1107C205.343 86.9787 205.171 88.028 205.353 88.9086C205.547 89.8417 206.01 90.7489 206.361 91.609C206.741 92.5454 207.157 93.4565 207.574 94.371C208.189 95.7212 208.807 97.0693 209.428 98.4155C209.474 98.5164 209.298 98.9083 209.262 99.0225C209.183 99.2742 209.102 99.5259 209.017 99.7763C208.911 100.089 208.808 100.43 208.645 100.709C209.1 100.279 209.377 99.6076 209.613 98.9939C209.908 98.2302 210.084 97.4054 210.246 96.5892C210.351 96.1721 210.129 97.1802 210.246 96.5892Z" fill="url(#paint18_linear_4871_729)"/>
<path d="M212.556 84.4278C212.629 83.5936 212.571 82.7037 212.155 81.9951C211.711 81.2154 211.228 80.4676 210.72 79.7464C209.82 78.4666 208.852 77.2566 207.806 76.1449C207.04 75.3293 206.253 74.5304 205.46 73.7507C204.864 73.1663 204.265 72.5859 203.66 72.0154C203.12 71.5047 202.511 71.0564 202.023 70.4727C202.407 71.2151 203.006 71.8055 203.543 72.3873C204.109 73.0023 204.702 73.5814 205.294 74.1612C205.596 74.4574 205.895 74.7602 206.193 75.0637C206.271 75.1427 206.349 75.2218 206.427 75.3008C206.528 75.4031 206.504 75.419 206.502 75.5658C206.498 75.8241 206.499 76.0825 206.509 76.3395C206.527 76.8057 206.56 77.2819 206.639 77.7394C206.72 78.2056 206.903 78.5669 207.124 78.9568C208.066 80.6184 209.158 82.1452 210.224 83.6932C210.683 84.3627 211.15 85.0241 211.623 85.6796C211.756 85.8636 211.889 86.0469 212.024 86.2295C212.201 86.4706 212.012 87.0975 211.967 87.4037C211.907 87.8075 211.858 88.2464 211.723 88.627C212.071 88.1362 212.23 87.4614 212.351 86.8491C212.506 86.0648 212.533 85.232 212.556 84.4278C212.574 84.2219 212.539 85.0042 212.556 84.4278Z" fill="url(#paint19_linear_4871_729)"/>
<path d="M212.768 71.9489C212.707 71.2151 212.552 70.4825 212.134 69.9154C211.694 69.3183 211.146 68.805 210.643 68.285C209.625 67.2304 208.492 66.2827 207.343 65.4386C206.332 64.7087 205.295 64.0001 204.255 63.332C203.644 62.9395 203.033 62.5497 202.421 62.1625C201.894 61.8304 201.321 61.5535 200.827 61.1523C201.254 61.7162 201.845 62.1193 202.377 62.5231C203.036 63.0225 203.73 63.4455 204.407 63.9078C204.74 64.1349 205.073 64.36 205.407 64.5845C205.492 64.6423 205.577 64.6994 205.662 64.7565C205.773 64.8309 205.753 64.8502 205.774 64.989C205.811 65.2307 205.856 65.4704 205.904 65.7095C205.993 66.1412 206.084 66.5822 206.231 66.9926C206.382 67.4163 206.618 67.7198 206.89 68.0412C208.096 69.4678 209.421 70.7409 210.737 72.02C211.254 72.5234 211.776 73.0188 212.304 73.5069C212.436 73.6278 212.646 73.7433 212.658 73.9452C212.683 74.4294 212.702 74.9162 212.697 75.4017C212.695 75.6115 212.695 75.8313 212.659 76.0379C213.193 74.8584 212.959 73.1901 212.768 71.9489C213.1 74.1079 212.736 71.5577 212.768 71.9489Z" fill="url(#paint20_linear_4871_729)"/>
<path d="M210.884 59.665C210.702 58.973 210.429 58.3022 209.917 57.8705C209.37 57.409 208.767 57.0258 208.185 56.628C207.056 55.9041 205.874 55.2426 204.667 54.7233C203.658 54.2876 202.636 53.8593 201.614 53.4708C200.964 53.2237 200.313 52.978 199.663 52.7356C199.151 52.545 198.608 52.4029 198.117 52.1445C198.65 52.6167 199.321 52.9156 199.937 53.1945C200.639 53.5133 201.354 53.7849 202.065 54.0725C202.43 54.2199 202.795 54.368 203.159 54.5154C203.318 54.5798 203.345 54.8296 203.41 55.0082C203.488 55.222 203.57 55.4332 203.656 55.6418C203.816 56.0336 203.98 56.4327 204.224 56.7635C204.486 57.1174 204.867 57.3658 205.2 57.6135C206.584 58.6449 208.018 59.5627 209.465 60.4619C209.95 60.7634 210.437 61.0596 210.927 61.3459C211.024 61.403 211.062 61.403 211.095 61.5345C211.151 61.749 211.196 61.9655 211.239 62.1847C211.32 62.5984 211.436 63.0473 211.431 63.4764C211.751 62.2577 211.245 60.7927 210.884 59.665C211.038 60.1478 210.791 59.3104 210.884 59.665Z" fill="url(#paint21_linear_4871_729)"/>
<path d="M206.95 48.0768C206.684 47.4851 206.301 46.9239 205.777 46.639C205.188 46.3183 204.554 46.0792 203.935 45.852C202.842 45.4496 201.72 45.1016 200.591 44.8765C199.565 44.6693 198.527 44.4787 197.495 44.3232C196.868 44.2289 196.242 44.134 195.614 44.041C195.065 43.9586 194.487 43.9334 193.949 43.7773C194.54 44.124 195.241 44.2741 195.885 44.4129C196.599 44.5657 197.319 44.6746 198.037 44.7981C198.388 44.8585 198.74 44.919 199.092 44.9794C199.273 45.3327 199.471 45.6747 199.688 45.9988C199.913 46.3355 200.135 46.6888 200.444 46.9253C200.74 47.1544 201.109 47.2925 201.437 47.4473C202.864 48.122 204.341 48.6307 205.813 49.1428C206.309 49.3154 206.806 49.4874 207.306 49.6428C207.527 49.7119 207.688 50.3461 207.781 50.5885C207.887 50.8695 208.006 51.1663 208.056 51.4711C208.155 50.2844 207.452 49.0358 206.95 48.0768C207.383 48.903 206.88 47.9228 206.95 48.0768Z" fill="url(#paint22_linear_4871_729)"/>
<path d="M201.13 37.6587C200.782 37.1912 200.347 36.7488 199.827 36.5961C199.229 36.4201 198.599 36.3398 197.986 36.264C196.808 36.1179 195.628 36.0396 194.444 36.0748C193.593 36.1013 192.737 36.1286 191.888 36.1837C191.253 36.2242 190.618 36.266 189.984 36.3079C189.478 36.3404 188.951 36.4314 188.444 36.3902C188.996 36.5808 189.615 36.5901 190.185 36.5948C190.848 36.6014 191.51 36.5489 192.173 36.525C192.48 36.5137 192.787 36.4991 193.094 36.4839C193.28 36.4752 193.368 36.4374 193.496 36.6001C193.618 36.7548 193.744 36.9062 193.874 37.051C194.131 37.3366 194.407 37.6215 194.706 37.842C194.985 38.0459 195.306 38.1176 195.622 38.194C196.994 38.5293 198.396 38.696 199.79 38.8355C200.409 38.8973 201.027 38.9723 201.646 39.0228C201.906 39.044 202.117 39.5395 202.272 39.7805C202.419 40.007 202.604 40.2587 202.682 40.5343C202.653 40.0097 202.375 39.5182 202.131 39.1005C201.832 38.5878 201.489 38.1123 201.13 37.6587C201.656 38.3241 200.764 37.1672 201.13 37.6587Z" fill="url(#paint23_linear_4871_729)"/>
<path d="M193.657 28.8369C193.25 28.4616 192.756 28.1276 192.227 28.1289C191.685 28.1322 191.147 28.1668 190.608 28.2199C189.493 28.3281 188.391 28.5048 187.295 28.7811C186.5 28.9816 185.702 29.1862 184.913 29.412C184.354 29.5714 183.796 29.7308 183.238 29.8902C182.762 30.0263 182.267 30.2255 181.778 30.2846C182.355 30.3617 182.98 30.2242 183.545 30.102C184.077 29.9871 184.605 29.839 185.132 29.6956C185.442 29.6106 185.752 29.5249 186.064 29.4432C186.223 29.4007 186.327 29.3296 186.462 29.4472C186.575 29.5461 186.691 29.6418 186.809 29.7334C187.238 30.0668 187.728 30.4261 188.253 30.4653C189.663 30.5715 191.111 30.3936 192.514 30.2129C193.122 30.1359 193.729 30.0515 194.336 29.9625C194.584 29.9267 194.813 30.2919 194.994 30.4839C195.178 30.6791 195.388 30.879 195.53 31.1221C195.401 30.6492 195.086 30.2607 194.794 29.9207C194.446 29.5136 194.066 29.1497 193.657 28.8369C194.264 29.3004 193.25 28.4616 193.657 28.8369Z" fill="url(#paint24_linear_4871_729)"/>
<path d="M184.849 21.9673C184.424 21.709 183.923 21.5064 183.44 21.6167C182.916 21.7541 182.395 21.9109 181.877 22.0835C180.884 22.4123 179.916 22.8074 178.964 23.2803C178.306 23.6084 177.643 23.9338 176.991 24.2798C176.506 24.5368 176.022 24.7945 175.537 25.0508C175.087 25.2879 174.633 25.5675 174.162 25.7422C175.299 25.5888 176.349 24.9319 177.391 24.4139C177.648 24.2858 177.904 24.1529 178.161 24.0214C178.352 23.9231 178.75 24.2452 178.949 24.3322C179.25 24.4637 179.576 24.5833 179.899 24.6032C180.188 24.6211 180.497 24.5328 180.78 24.4691C182.006 24.1934 183.219 23.7618 184.408 23.3161C184.834 23.1568 185.258 22.9894 185.68 22.8161C185.869 22.7384 186.186 23.0698 186.353 23.19C186.54 23.3241 186.748 23.4583 186.905 23.6409C186.513 22.7908 185.558 22.3246 184.849 21.9673C185.465 22.2775 184.422 21.7083 184.849 21.9673Z" fill="url(#paint25_linear_4871_729)"/>
<path d="M175.052 17.3362C174.624 17.1954 174.141 17.1031 173.72 17.3223C173.269 17.556 172.824 17.8037 172.384 18.0634C171.503 18.5834 170.658 19.1599 169.839 19.8054C169.244 20.2736 168.642 20.7338 168.054 21.2127C167.633 21.5553 167.215 21.9047 166.794 22.2467C166.486 22.4977 166.177 22.7793 165.839 22.9739C166.772 22.7122 167.606 21.9047 168.393 21.2937C168.624 21.1137 168.856 20.9311 169.085 20.7478C169.184 20.6687 169.287 20.5299 169.406 20.5665C169.544 20.609 169.683 20.6462 169.822 20.6787C170.432 20.8208 170.946 20.8082 171.528 20.5525C172.664 20.0531 173.754 19.3578 174.819 18.6737C175.18 18.442 175.539 18.2042 175.894 17.9585C176.072 17.835 176.279 17.9691 176.468 18.0475C176.702 18.1431 176.964 18.2367 177.171 18.4008C176.689 17.7121 175.747 17.5129 175.052 17.3362C175.657 17.4889 174.625 17.1954 175.052 17.3362Z" fill="url(#paint26_linear_4871_729)"/>
<path d="M162.074 16.0478C162.892 15.1904 164.133 15.474 165.134 15.5152C166.271 15.561 167.394 15.7098 168.522 15.8804C170.503 16.18 172.461 16.6933 174.43 17.0832C173.349 17.1383 172.296 16.8361 171.234 16.6521C170.947 16.6023 170.659 16.5485 170.372 16.4921C170.171 16.4529 169.602 16.2218 169.449 16.3652C168.941 16.8407 168.41 17.1735 167.757 17.2014C166.431 17.2578 165.09 17.1296 163.767 17.0187C163.178 16.9703 162.589 16.9477 162 16.8959C161.901 16.8872 161.801 16.8779 161.702 16.868C161.574 16.856 161.495 16.9962 161.406 17.0958C161.249 17.2684 161.023 17.4723 160.934 17.7127C160.903 17.0088 161.666 16.3965 162.074 16.0478C162.348 15.7609 161.219 16.779 162.074 16.0478Z" fill="url(#paint27_linear_4871_729)"/>
<path d="M164.009 14.1381C164.354 14.5578 164.78 14.7882 165.268 14.8646C165.892 14.9629 166.514 15.0712 167.136 15.1947C168.308 15.4285 169.479 15.6602 170.65 15.9046C171.493 16.0806 172.311 16.3184 173.141 16.576C174.166 16.8935 175.25 17.2202 176.213 17.7615C175.802 17.4095 175.313 17.1771 174.845 16.9586C174.202 16.6584 173.548 16.4372 172.879 16.2327C172.547 16.1311 172.214 16.0335 171.879 15.9411C171.765 15.9099 171.514 15.8993 171.454 15.7818C171.389 15.6562 171.321 15.5334 171.246 15.4145C170.875 14.8155 170.459 14.4954 169.871 14.2636C168.531 13.7356 167.079 13.4886 165.674 13.3797C165.096 13.3352 164.516 13.2986 163.937 13.2814C163.861 13.28 163.787 13.2774 163.713 13.2774C163.576 13.2761 163.549 13.2316 163.442 13.1113C163.26 12.9061 162.988 12.6644 162.885 12.3828C162.827 13.0795 163.627 13.7462 164.009 14.1381C164.271 14.4575 163.594 13.7124 164.009 14.1381Z" fill="url(#paint28_linear_4871_729)"/>
<path d="M61.7235 138.24C60.4357 138.171 59.1417 138.117 57.8606 137.93C56.2616 137.696 54.6727 137.436 53.0916 137.06C49.9059 136.302 46.78 135.159 43.7775 133.685C37.9777 130.839 32.6633 126.744 28.0909 121.639C23.199 116.178 19.2579 109.613 16.4627 102.365C15.2576 99.2373 14.2995 95.9971 13.5424 92.6792C13.0463 90.5002 12.6357 88.2502 12.3887 86.0127C12.168 84.0104 11.9719 82.0207 11.8876 80.0005C11.7244 76.1108 11.8758 72.2031 12.3278 68.3459C13.2206 60.7152 15.3107 53.3123 18.5193 46.6173C21.5698 40.2537 25.512 34.5602 30.2224 29.8304C32.7131 27.33 35.3987 25.1072 38.2347 23.1939C41.1142 21.2507 44.1485 19.694 47.2772 18.4189C48.7142 17.8338 50.1808 17.3457 51.6596 16.9319C51.7647 16.9034 51.8686 16.8735 51.9742 16.8442C51.9893 16.8396 51.9485 16.6722 51.9457 16.653C51.9379 16.6158 51.925 16.4245 51.8971 16.4039C51.858 16.3734 51.6149 16.4796 51.573 16.4909C50.8702 16.6802 50.1757 16.8861 49.4818 17.1165C46.2838 18.1798 43.1384 19.5353 40.1722 21.3231C34.3746 24.817 29.1061 29.412 24.7052 35.1168C20.5044 40.5625 17.1209 46.9069 14.7632 53.742C12.3206 60.8228 11.0294 68.4694 10.8908 76.1167C10.8059 80.8725 11.135 85.7677 12.0217 90.4198C12.558 93.233 13.1893 96.0064 14.0056 98.7233C15.1459 102.522 16.6734 106.098 18.3506 109.594C20.0351 113.022 22.0844 116.255 24.313 119.205C26.4607 122.048 28.8239 124.62 31.3414 126.99C36.191 131.558 41.8372 134.999 47.7175 137.245C50.8713 138.451 54.1213 139.215 57.4003 139.725C58.7959 139.942 60.2128 140.077 61.6196 140.126C62.1269 140.144 62.6811 140.091 63.1476 139.825C63.5834 139.576 63.7326 139.098 63.294 138.73C62.856 138.367 62.242 138.248 61.7235 138.24Z" fill="url(#paint29_linear_4871_729)"/>
<path d="M41.4276 132.812C40.7711 132.43 40.1386 131.851 39.7453 131.11C39.3341 130.334 39.1313 129.346 38.8972 128.478C38.3949 126.621 38.01 124.718 37.7608 122.79C37.5502 121.163 37.4686 119.513 37.3787 117.872C37.2725 115.897 37.2468 113.93 37.2412 111.952C37.239 111.395 37.2809 110.821 37.2256 110.266C37.4692 111.06 37.5295 111.969 37.5899 112.805C37.6575 113.76 37.6876 114.718 37.7362 115.675C37.7865 116.661 37.8105 117.649 37.8709 118.635C37.8776 118.747 37.8854 118.861 37.8915 118.974C37.9005 119.121 37.9234 119.106 38.0212 119.18C38.1603 119.288 38.2983 119.399 38.4335 119.513C38.7721 119.801 39.0978 120.113 39.4135 120.437C39.685 120.716 39.9476 121.027 40.1325 121.396C40.3292 121.789 40.4381 122.254 40.5783 122.679C40.8811 123.597 41.1314 124.536 41.3778 125.478C41.8773 127.381 42.3651 129.287 42.8589 131.193C42.9841 131.681 43.1087 132.17 43.231 132.657C43.2908 132.899 43.3405 133.459 43.5422 133.566C44.2328 133.933 44.9982 134.422 45.7552 134.563C45.1937 134.652 44.6088 134.496 44.0758 134.298C43.1411 133.952 42.2617 133.408 41.4276 132.812C43.5244 134.311 41.3281 132.754 41.4276 132.812Z" fill="url(#paint30_linear_4871_729)"/>
<path d="M32.4546 126.42C31.8976 125.866 31.3651 125.19 31.1193 124.361C30.9886 123.919 30.955 123.434 30.898 122.973C30.8344 122.456 30.7763 121.938 30.7276 121.418C30.5477 119.513 30.5003 117.573 30.5952 115.659C30.7567 112.382 31.1925 109.121 31.6797 105.895C31.7657 105.332 31.8981 104.756 31.9266 104.184C32.0439 104.988 31.9685 105.867 31.9026 106.674C31.8428 107.395 31.7557 108.113 31.678 108.83C31.5858 109.678 31.4947 110.527 31.4025 111.375C31.3774 111.61 31.3523 111.844 31.3271 112.078C31.3081 112.253 31.2048 112.629 31.3126 112.751C31.5959 113.071 31.8685 113.408 32.1194 113.763C32.373 114.119 32.6239 114.487 32.8244 114.888C33.0306 115.3 33.1021 115.721 33.1736 116.186C33.3234 117.168 33.4491 118.157 33.5407 119.148C33.7089 121.156 33.877 123.165 34.0519 125.172C34.1212 125.958 34.1821 126.744 34.2441 127.531C34.576 127.827 34.9061 128.116 35.2559 128.383C35.5654 128.621 35.8906 128.898 36.2414 129.047C35.5939 129.006 34.9358 128.624 34.3989 128.219C33.7094 127.699 33.0563 127.076 32.4546 126.42C32.8853 126.891 31.8093 125.778 32.4546 126.42Z" fill="url(#paint31_linear_4871_729)"/>
<path d="M24.7423 118.013C24.2328 117.274 23.7736 116.377 23.7926 115.39C23.8138 114.405 23.8596 113.421 23.9334 112.439C24.087 110.544 24.3948 108.655 24.8105 106.818C25.5279 103.647 26.4726 100.547 27.4705 97.4883C27.5303 97.3037 27.5895 97.117 27.6319 96.9258C27.6124 97.7851 27.4001 98.6624 27.1945 99.4813C26.971 100.373 26.7246 101.258 26.4788 102.142C26.3542 102.593 26.2302 103.045 26.1028 103.495C26.0413 103.713 25.9799 103.932 25.919 104.149C25.8692 104.327 25.6871 104.746 25.7787 104.9C26.2229 105.638 26.6447 106.448 26.8939 107.31C27.1503 108.193 26.9989 109.256 26.9649 110.172C26.9269 111.189 26.8498 112.204 26.7598 113.216C26.6369 115.03 26.4671 116.841 26.3112 118.651C26.2939 118.848 26.2765 119.044 26.2603 119.239C26.2553 119.304 26.2497 119.368 26.2441 119.433C26.2341 119.548 26.514 119.826 26.5821 119.916C26.9632 120.418 27.3721 120.996 27.8677 121.344C27.3699 121.204 26.9297 120.821 26.5486 120.433C25.8581 119.73 25.277 118.881 24.7423 118.013C26.0687 120.167 24.4876 117.643 24.7423 118.013Z" fill="url(#paint32_linear_4871_729)"/>
<path d="M18.5926 107.932C18.2217 107.116 17.9512 106.198 18.1194 105.261C18.2993 104.306 18.4954 103.353 18.7401 102.418C19.2178 100.596 19.8207 98.8281 20.5341 97.1193C21.0392 95.9073 21.5956 94.7205 22.146 93.5371C22.5521 92.6664 22.9734 91.8117 23.4103 90.963C23.7902 90.2245 24.2226 89.4919 24.5361 88.7109C24.3886 89.5245 24.0673 90.3028 23.7489 91.038C23.4041 91.831 23.0432 92.6166 22.679 93.3969C22.4912 93.8001 22.3035 94.2039 22.1136 94.6063C22.0152 94.8142 21.9163 95.022 21.8191 95.2293C21.7688 95.3375 21.7191 95.4451 21.6711 95.5533C21.5923 95.7267 21.5683 95.7559 21.6342 95.9319C21.9515 96.7727 22.2605 97.7177 22.2996 98.6475C22.3197 99.0984 22.2046 99.5639 22.1219 100C22.023 100.516 21.9102 101.028 21.8007 101.54C21.5906 102.524 21.3409 103.494 21.0928 104.463C20.6621 106.145 20.2324 107.827 19.7922 109.506C19.7435 109.691 19.8369 109.792 19.9195 109.956C20.0419 110.196 20.1659 110.436 20.2922 110.674C20.4928 111.049 20.6911 111.468 20.9721 111.766C20.4196 111.477 20.0101 110.813 19.6726 110.246C19.2402 109.518 18.901 108.743 18.5926 107.932C18.7033 108.223 18.4099 107.531 18.5926 107.932Z" fill="url(#paint33_linear_4871_729)"/>
<path d="M14.2657 96.5892C14.0344 95.6747 13.9623 94.7642 14.2936 93.8709C14.6311 92.9624 14.9903 92.0692 15.4015 91.2038C16.1759 89.5714 17.0296 88.0181 17.9989 86.5404C18.6649 85.527 19.356 84.5334 20.0493 83.5459C20.5779 82.7928 21.1204 82.0589 21.6746 81.3311C22.0517 80.8363 22.4696 80.3482 22.7847 79.793C22.5747 80.4651 22.1992 81.0667 21.8372 81.6319C21.3533 82.3863 20.8522 83.1282 20.341 83.8567C20.0801 84.2279 19.8208 84.5992 19.5582 84.9691C19.4337 85.1451 19.3096 85.3217 19.1884 85.5011C19.1314 85.5861 19.0739 85.6711 19.0157 85.7561C18.9319 85.8796 18.9822 85.9633 19.0096 86.1107C19.1705 86.9787 19.342 88.028 19.1588 88.9086C18.9655 89.8417 18.5012 90.7489 18.1514 91.609C17.771 92.5454 17.3553 93.4565 16.9385 94.371C16.3228 95.7212 15.706 97.0693 15.0836 98.4155C15.0373 98.5164 15.2144 98.9083 15.2501 99.0225C15.3295 99.2742 15.4099 99.5259 15.4954 99.7763C15.6015 100.089 15.7043 100.43 15.8675 100.709C15.4127 100.279 15.1356 99.6076 14.8993 98.9939C14.6031 98.2302 14.4277 97.4054 14.2657 96.5892C14.383 97.1802 14.1607 96.1721 14.2657 96.5892Z" fill="url(#paint34_linear_4871_729)"/>
<path d="M11.9569 84.4278C11.8832 83.5936 11.9413 82.7037 12.3569 81.9951C12.8017 81.2154 13.2844 80.4676 13.7922 79.7464C14.6929 78.4666 15.6605 77.2566 16.7058 76.1449C17.4724 75.3293 18.2596 74.5304 19.0529 73.7507C19.6485 73.1663 20.2469 72.5859 20.8519 72.0154C21.3928 71.5047 22.0018 71.0564 22.4895 70.4727C22.1057 71.2151 21.5062 71.8055 20.9704 72.3873C20.4039 73.0023 19.8111 73.5814 19.2194 74.1612C18.9166 74.4574 18.6177 74.7602 18.3194 75.0637C18.2417 75.1427 18.1629 75.2218 18.0858 75.3008C17.9847 75.4031 18.0082 75.419 18.0104 75.5658C18.0149 75.8241 18.0138 76.0825 18.0037 76.3395C17.9869 76.8057 17.9517 77.2819 17.873 77.7394C17.7931 78.2056 17.6087 78.5669 17.388 78.9568C16.4466 80.6184 15.3549 82.1452 14.2889 83.6932C13.8291 84.3627 13.3626 85.0241 12.8883 85.6796C12.7558 85.8636 12.6223 86.0469 12.4882 86.2295C12.31 86.4706 12.5005 87.0975 12.5452 87.4037C12.605 87.8075 12.6542 88.2464 12.7894 88.627C12.4402 88.1362 12.2815 87.4614 12.1614 86.8491C12.0066 86.0648 11.9793 85.232 11.9569 84.4278C11.9737 85.0042 11.9385 84.2219 11.9569 84.4278Z" fill="url(#paint35_linear_4871_729)"/>
<path d="M11.7438 71.9489C11.8053 71.2151 11.9606 70.4825 12.378 69.9154C12.8171 69.3183 13.3652 68.805 13.868 68.285C14.8865 67.2304 16.0196 66.2827 17.1682 65.4386C18.18 64.7087 19.2159 64.0001 20.2578 63.332C20.8679 62.9395 21.4797 62.5497 22.0915 62.1625C22.6178 61.8304 23.1916 61.5535 23.6855 61.1523C23.2586 61.7162 22.6675 62.1193 22.1351 62.5231C21.4764 63.0225 20.7819 63.4455 20.1053 63.9078C19.7729 64.1349 19.4388 64.36 19.1047 64.5845C19.0203 64.6423 18.9354 64.6994 18.8499 64.7565C18.7399 64.8309 18.76 64.8502 18.7387 64.989C18.7019 65.2307 18.6566 65.4704 18.608 65.7095C18.5192 66.1412 18.4276 66.5822 18.2817 66.9926C18.1303 67.4163 17.894 67.7198 17.6219 68.0412C16.4157 69.4678 15.091 70.7409 13.7753 72.02C13.2585 72.5234 12.7361 73.0188 12.2081 73.5069C12.0774 73.6278 11.8656 73.7433 11.855 73.9452C11.8282 74.4294 11.8109 74.9162 11.8154 75.4017C11.8176 75.6115 11.8176 75.8313 11.8533 76.0379C11.3192 74.8584 11.5533 73.1901 11.7438 71.9489C11.7768 71.5577 11.4125 74.1079 11.7438 71.9489Z" fill="url(#paint36_linear_4871_729)"/>
<path d="M13.6286 59.665C13.8107 58.973 14.0834 58.3022 14.5957 57.8705C15.1427 57.409 15.7455 57.0258 16.3271 56.628C17.4557 55.9041 18.6396 55.2426 19.8463 54.7233C20.8559 54.2876 21.8766 53.8593 22.8996 53.4708C23.5494 53.2237 24.1992 52.978 24.85 52.7356C25.3613 52.545 25.9043 52.4029 26.3954 52.1445C25.8641 52.6167 25.1909 52.9156 24.5757 53.1945C23.8746 53.5133 23.1589 53.7849 22.4482 54.0725C22.0828 54.2199 21.7185 54.368 21.3543 54.5154C21.1945 54.5798 21.1682 54.8296 21.1023 55.0082C21.0246 55.222 20.9431 55.4332 20.8576 55.6418C20.6978 56.0336 20.5335 56.4327 20.2899 56.7635C20.0285 57.1174 19.6458 57.3658 19.3133 57.6135C17.9294 58.6449 16.4947 59.5627 15.0488 60.4619C14.5638 60.7634 14.0772 61.0596 13.5867 61.3459C13.4895 61.403 13.452 61.403 13.4179 61.5345C13.3632 61.749 13.3179 61.9655 13.2749 62.1847C13.1934 62.5984 13.0783 63.0473 13.0827 63.4764C12.7615 62.2577 13.2677 60.7927 13.6286 59.665C13.7224 59.3104 13.4733 60.1478 13.6286 59.665Z" fill="url(#paint37_linear_4871_729)"/>
<path d="M17.5638 48.0768C17.8286 47.4851 18.2119 46.9239 18.736 46.639C19.3265 46.3183 19.9584 46.0792 20.5786 45.852C21.6714 45.4496 22.7927 45.1016 23.9224 44.8765C24.9481 44.6693 25.9862 44.4787 27.0181 44.3232C27.6444 44.2289 28.2713 44.134 28.8987 44.041C29.4479 43.9586 30.0262 43.9334 30.5647 43.7773C29.9731 44.124 29.2719 44.2741 28.6272 44.4129C27.9137 44.5657 27.1941 44.6746 26.4767 44.7981C26.1242 44.8585 25.7733 44.919 25.4214 44.9794C25.2398 45.3327 25.042 45.6747 24.8241 45.9988C24.599 46.3355 24.3777 46.6888 24.0693 46.9253C23.7715 47.1544 23.4033 47.2925 23.0759 47.4473C21.6479 48.122 20.1718 48.6307 18.6991 49.1428C18.2035 49.3154 17.7074 49.4874 17.2074 49.6428C16.9856 49.7119 16.8241 50.3461 16.7319 50.5885C16.6252 50.8695 16.5068 51.1663 16.4565 51.4711C16.3587 50.2844 17.0599 49.0358 17.5638 48.0768C17.6325 47.9228 17.1297 48.903 17.5638 48.0768Z" fill="url(#paint38_linear_4871_729)"/>
<path d="M23.3837 37.6587C23.7307 37.1912 24.1643 36.7488 24.6855 36.5961C25.285 36.4201 25.9147 36.3398 26.5281 36.264C27.7058 36.1179 28.8847 36.0396 30.0691 36.0748C30.9195 36.1013 31.7765 36.1286 32.6252 36.1837C33.2593 36.2242 33.8951 36.266 34.5298 36.3079C35.0354 36.3404 35.5628 36.4314 36.0684 36.3902C35.5176 36.5808 34.8974 36.5901 34.3287 36.5948C33.6644 36.6014 33.0029 36.5489 32.3403 36.525C32.033 36.5137 31.7257 36.4991 31.4178 36.4839C31.2329 36.4752 31.1452 36.4374 31.0173 36.6001C30.8949 36.7548 30.7686 36.9062 30.6385 37.051C30.382 37.3366 30.1066 37.6215 29.806 37.842C29.5283 38.0459 29.2065 38.1176 28.8908 38.194C27.5187 38.5293 26.1163 38.696 24.723 38.8355C24.1034 38.8973 23.4866 38.9723 22.8675 39.0228C22.6066 39.044 22.396 39.5395 22.2407 39.7805C22.0948 40.007 21.9082 40.2587 21.8306 40.5343C21.8602 40.0097 22.1362 39.5182 22.3814 39.1005C22.6809 38.5878 23.0239 38.1123 23.3837 37.6587C23.7486 37.1672 22.8558 38.3241 23.3837 37.6587Z" fill="url(#paint39_linear_4871_729)"/>
<path d="M30.8551 28.8369C31.2618 28.4616 31.7568 28.1276 32.2854 28.1289C32.8268 28.1322 33.3659 28.1668 33.9039 28.2199C35.0196 28.3281 36.122 28.5048 37.217 28.7811C38.012 28.9816 38.8099 29.1862 39.5993 29.412C40.1574 29.5714 40.7156 29.7308 41.2737 29.8902C41.7503 30.0263 42.2459 30.2255 42.7336 30.2846C42.1576 30.3617 41.533 30.2242 40.967 30.102C40.4346 29.9871 39.9071 29.839 39.3803 29.6956C39.0697 29.6106 38.7596 29.5249 38.4484 29.4432C38.2886 29.4007 38.1852 29.3296 38.0506 29.4472C37.9372 29.5461 37.821 29.6418 37.7031 29.7334C37.274 30.0668 36.7835 30.4261 36.26 30.4653C34.8492 30.5715 33.4005 30.3936 31.9988 30.2129C31.3909 30.1359 30.783 30.0515 30.1768 29.9625C29.9299 29.9267 29.6992 30.2919 29.5187 30.4839C29.3354 30.6791 29.1248 30.879 28.9829 31.1221C29.1114 30.6492 29.4271 30.2607 29.7187 29.9207C30.0657 29.5136 30.4461 29.1497 30.8551 28.8369C31.2624 28.4616 30.2484 29.3004 30.8551 28.8369Z" fill="url(#paint40_linear_4871_729)"/>
<path d="M39.6634 21.9673C40.0886 21.709 40.5892 21.5064 41.0714 21.6167C41.5965 21.7541 42.1172 21.9109 42.6346 22.0835C43.628 22.4123 44.5956 22.8074 45.5465 23.2803C46.2052 23.6084 46.869 23.9338 47.5199 24.2798C48.0048 24.5368 48.4898 24.7945 48.9753 25.0508C49.4256 25.2879 49.8787 25.5675 50.3497 25.7422C49.2122 25.5888 48.1618 24.9319 47.1204 24.4139C46.8628 24.2858 46.6069 24.1529 46.3505 24.0214C46.1589 23.9231 45.7627 24.2452 45.5633 24.3322C45.2622 24.4637 44.9359 24.5833 44.6135 24.6032C44.3235 24.6211 44.0151 24.5328 43.7324 24.4691C42.5061 24.1934 41.292 23.7618 40.1031 23.3161C39.678 23.1568 39.2534 22.9894 38.8315 22.8161C38.6438 22.7384 38.3259 23.0698 38.1594 23.19C37.9728 23.3241 37.7644 23.4583 37.6074 23.6409C37.9991 22.7908 38.9539 22.3246 39.6634 21.9673C40.0892 21.7083 39.0472 22.2775 39.6634 21.9673Z" fill="url(#paint41_linear_4871_729)"/>
<path d="M49.4602 17.3362C49.8876 17.1954 50.3715 17.1031 50.7916 17.3223C51.2419 17.556 51.6878 17.8037 52.1275 18.0634C53.008 18.5834 53.8539 19.1599 54.6718 19.8054C55.2668 20.2736 55.8691 20.7338 56.458 21.2127C56.8787 21.5553 57.2966 21.9047 57.7173 22.2467C58.0251 22.4977 58.3357 22.7793 58.6726 22.9739C57.739 22.7122 56.906 21.9047 56.1188 21.2937C55.8864 21.1137 55.6562 20.9311 55.4255 20.7478C55.3266 20.6687 55.2243 20.5299 55.1042 20.5665C54.9668 20.609 54.8282 20.6462 54.6891 20.6787C54.079 20.8208 53.5656 20.8082 52.984 20.5525C51.8476 20.0531 50.7564 19.3578 49.6921 18.6737C49.3306 18.442 48.9714 18.2042 48.6172 17.9585C48.439 17.835 48.2322 17.9691 48.0434 18.0475C47.8099 18.1431 47.5467 18.2367 47.3389 18.4008C47.8233 17.7121 48.7647 17.5129 49.4602 17.3362C49.8865 17.1954 48.8557 17.4889 49.4602 17.3362Z" fill="url(#paint42_linear_4871_729)"/>
<path d="M41.0268 133.814C40.3066 133.458 39.5501 133.141 38.7584 133.198C38.3741 133.227 37.9953 133.35 37.617 133.427C37.1757 133.518 36.7354 133.608 36.294 133.698C34.6319 134.033 32.9659 134.31 31.2953 134.58C30.5143 134.706 29.7271 134.784 28.9427 134.88C28.3387 134.953 27.7303 135.056 27.123 135.079C25.5374 135.139 23.9418 135.118 22.3601 134.978C20.9527 134.853 19.475 134.757 18.1162 134.269C19.4778 135.093 21.0276 135.4 22.531 135.606C24.1457 135.826 25.8151 135.821 27.4336 135.673C27.5364 135.663 27.6387 135.653 27.7404 135.643C27.8013 135.699 27.8605 135.753 27.9214 135.807C28.0583 135.93 28.1962 136.051 28.3348 136.171C28.6812 136.468 29.0349 136.754 29.3975 137.022C30.0288 137.487 30.7853 137.943 31.5306 138.057C32.372 138.188 33.2363 138.147 34.0805 138.077C34.9403 138.006 35.7946 137.88 36.6388 137.674C38.297 137.268 39.9027 136.687 41.4665 135.914C41.8017 135.749 42.1358 135.576 42.466 135.394C42.5621 135.341 42.6576 135.288 42.7526 135.234C42.9146 135.141 43.0766 135.275 43.2403 135.347C43.8828 135.626 44.6337 135.864 45.2053 136.327C44.8432 135.806 44.3164 135.457 43.8164 135.158C42.9208 134.621 41.9715 134.21 41.0268 133.814C43.37 134.795 40.9245 133.764 41.0268 133.814Z" fill="url(#paint43_linear_4871_729)"/>
<path d="M31.9407 127.234C31.32 126.687 30.5981 126.224 29.8182 126.125C28.9768 126.018 28.1052 126.064 27.2594 126.036C25.595 125.983 23.9228 125.884 22.2646 125.716C21.5433 125.643 20.8237 125.566 20.1035 125.488C19.6801 125.441 19.2448 125.421 18.8241 125.338C17.2849 125.033 15.7502 124.677 14.2434 124.193C12.9438 123.776 11.5817 123.371 10.3794 122.633C11.6063 123.755 13.1148 124.393 14.5825 124.919C15.3742 125.202 16.1938 125.4 17.0056 125.583C17.4112 125.675 17.8174 125.759 18.2252 125.834C18.4168 125.869 18.6079 125.899 18.8007 125.926C18.8979 125.939 18.9956 125.952 19.0917 125.964C19.2225 125.981 19.2543 126.065 19.3398 126.178C19.8717 126.882 20.4276 127.582 21.0589 128.162C21.6796 128.734 22.3121 129.082 23.0736 129.3C24.6983 129.765 26.4129 129.907 28.0795 129.83C29.5333 129.763 30.9702 129.562 32.3944 129.208C32.6586 129.141 32.9229 129.071 33.186 128.994C33.2587 128.974 33.3302 128.952 33.4028 128.93C33.5039 128.899 33.7459 129.166 33.8347 129.236C34.3655 129.657 34.9973 130.004 35.4504 130.548C35.1163 129.823 34.5236 129.315 33.9822 128.824C33.333 128.235 32.6391 127.735 31.9407 127.234C32.4508 127.6 31.2541 126.629 31.9407 127.234Z" fill="url(#paint44_linear_4871_729)"/>
<path d="M24.1604 118.624C23.6414 117.95 23.0084 117.346 22.2631 117.076C21.4742 116.789 20.635 116.632 19.8305 116.416C18.2175 115.985 16.6118 115.476 15.024 114.928C13.9586 114.558 12.8646 114.245 11.826 113.774C10.3214 113.091 8.84256 112.347 7.40559 111.482C6.47591 110.922 5.48646 110.366 4.67188 109.582C5.68144 110.967 7.14579 111.983 8.51963 112.772C9.2627 113.2 10.0259 113.58 10.7958 113.933C11.1433 114.093 11.4925 114.248 11.8444 114.392C12.0305 114.468 12.2171 114.539 12.4054 114.605C12.4998 114.797 12.5953 114.987 12.6937 115.175C13.1054 115.966 13.5429 116.766 14.0966 117.429C14.6664 118.11 15.3598 118.494 16.0973 118.862C17.6521 119.635 19.3472 120.086 21.0144 120.336C22.2094 120.515 23.4084 120.606 24.6124 120.576C24.7973 120.571 24.9822 120.564 25.1672 120.555C25.4029 120.541 25.6359 120.965 25.7968 121.158C26.1611 121.597 26.6081 122.021 26.8969 122.539C26.7332 121.942 26.3986 121.415 26.0667 120.936C25.4895 120.105 24.8292 119.353 24.1604 118.624C25.8365 120.45 23.8844 118.265 24.1604 118.624Z" fill="url(#paint45_linear_4871_729)"/>
<path d="M17.9858 108.349C17.6003 107.596 17.0745 106.822 16.3957 106.425C15.6258 105.975 14.8235 105.599 14.0453 105.17C12.5373 104.338 11.0484 103.461 9.57288 102.554C8.56387 101.933 7.57106 101.323 6.61401 100.593C5.19771 99.512 3.83225 98.3584 2.53327 97.0833C2.06341 96.6211 1.57399 96.1562 1.18066 95.5977C1.93826 97.163 3.22774 98.4713 4.43844 99.5266C5.0977 100.1 5.77652 100.639 6.47043 101.15C6.79447 101.389 7.12019 101.625 7.45485 101.842C7.64816 101.968 7.66101 102.058 7.7342 102.298C7.80404 102.529 7.87723 102.759 7.95377 102.987C8.24038 103.846 8.55716 104.725 9.05776 105.441C9.54103 106.133 10.2584 106.647 10.8948 107.115C12.3211 108.165 13.9145 108.939 15.5158 109.518C16.437 109.852 17.3734 110.144 18.3238 110.333C18.4528 110.359 18.583 110.382 18.7132 110.407C18.8624 110.666 19.011 110.925 19.1562 111.186C19.4121 111.647 19.7166 112.131 19.8937 112.644C19.8122 111.908 19.5328 111.219 19.2233 110.585C18.8478 109.816 18.4188 109.073 17.9858 108.349C18.1428 108.612 17.783 107.954 17.9858 108.349Z" fill="url(#paint46_linear_4871_729)"/>
<path d="M13.6758 96.8179C13.4328 96.001 13.0456 95.1144 12.4389 94.5984C11.7276 93.9967 11.0125 93.401 10.3175 92.7727C8.99505 91.5793 7.6782 90.3859 6.38201 89.152C5.5272 88.3378 4.7143 87.5169 3.93156 86.6044C2.7555 85.233 1.6314 83.8092 0.617918 82.2624C0.401143 81.9317 0.18046 81.5963 0 81.2344C0.494448 82.797 1.40513 84.2036 2.33983 85.4283C2.89964 86.1621 3.48851 86.8674 4.10085 87.5395C4.38578 87.8536 4.67463 88.1571 4.97298 88.4527C5.09422 88.5722 5.07857 88.798 5.10148 88.9793C5.13332 89.2277 5.16852 89.4747 5.20707 89.7218C5.35178 90.6263 5.52386 91.5747 5.95796 92.353C6.36079 93.0749 6.94351 93.7018 7.48489 94.2743C8.60955 95.4638 9.87053 96.4945 11.1946 97.3445C11.9947 97.8579 12.816 98.3347 13.6579 98.7432C13.7591 98.7923 13.8596 98.8408 13.9613 98.8853C14.1088 98.951 14.2222 99.5076 14.2831 99.6842C14.4558 100.184 14.6753 100.721 14.7452 101.26C14.8212 100.567 14.6474 99.835 14.4574 99.1875C14.2234 98.3879 13.9675 97.5942 13.6758 96.8179C13.887 97.3797 13.5524 96.4028 13.6758 96.8179Z" fill="url(#paint47_linear_4871_729)"/>
<path d="M11.4167 84.4995C11.3066 83.6175 11.0803 82.7209 10.5552 82.0621C9.96796 81.325 9.3925 80.5732 8.82374 79.8154C7.803 78.456 6.79567 77.0846 5.80957 75.6893C5.08549 74.6639 4.39773 73.6391 3.7664 72.5281C2.85293 70.9189 1.95287 69.2739 1.27628 67.5014C1.21818 67.3486 1.16119 67.1932 1.11426 67.0352C1.35785 68.8083 2.13612 70.4421 2.92947 71.943C3.36134 72.7592 3.82506 73.5475 4.32678 74.3066C4.45248 74.4965 4.57931 74.6845 4.70725 74.8717C4.69552 75.0683 4.68602 75.2649 4.67932 75.4621C4.65976 75.9768 4.64915 76.4982 4.68043 77.0135C4.73798 77.9546 4.9637 78.7143 5.37546 79.5146C5.80398 80.3467 6.29842 81.1158 6.83924 81.8483C7.89686 83.2808 9.07907 84.5446 10.3691 85.6736C10.6954 85.9598 11.0261 86.2368 11.3653 86.5011C11.4479 86.5662 11.4625 87.0078 11.482 87.1294C11.5178 87.3598 11.5535 87.5896 11.5865 87.8207C11.6351 88.1614 11.705 88.526 11.686 88.8733C11.8759 88.2225 11.8184 87.4754 11.7424 86.8073C11.653 86.0316 11.5591 85.2652 11.4167 84.4995C11.5228 85.0699 11.3904 84.2929 11.4167 84.4995Z" fill="url(#paint48_linear_4871_729)"/>
<path d="M11.2793 71.9027C11.3229 71.0579 11.2396 70.176 10.8647 69.4421C10.463 68.6572 10.0462 67.8795 9.65962 67.0819C8.91487 65.5424 8.15783 64.0117 7.44605 62.4503C6.82813 61.0975 6.26217 59.7427 5.77666 58.3135C5.24813 56.7588 4.62965 55.1058 4.4274 53.4336C4.3855 55.1211 4.85704 56.7874 5.35485 58.3454C5.64928 59.2672 5.99679 60.1571 6.37447 61.0344C6.46889 61.2556 6.58007 61.4043 6.5242 61.6487C6.47727 61.8533 6.43201 62.0591 6.39011 62.265C6.28619 62.7797 6.20798 63.2991 6.17837 63.829C6.07277 65.751 7.02647 67.6225 7.85055 69.2044C8.62714 70.6967 9.55905 72.0687 10.5753 73.3398C10.6647 73.4521 10.7541 73.563 10.8452 73.6719C10.9865 73.8426 10.9167 74.1494 10.9133 74.3799C10.9044 74.9072 10.9402 75.5029 10.8212 76.0162C11.0402 75.5905 11.1161 75.0672 11.1703 74.5811C11.2698 73.6951 11.2787 72.7953 11.2793 71.9027C11.3 71.5075 11.2782 74.1082 11.2793 71.9027Z" fill="url(#paint49_linear_4871_729)"/>
<path d="M13.2562 59.5351C13.4361 58.7614 13.4987 57.9232 13.2691 57.1582C13.0188 56.326 12.7573 55.4972 12.5215 54.6584C12.0779 53.0758 11.6232 51.4986 11.2108 49.9047C10.8494 48.5094 10.5315 47.1227 10.303 45.6875C10.0588 44.1607 9.73587 42.521 9.80235 40.957C9.45931 42.6957 9.73084 44.6336 10.0208 46.3576C10.1001 46.8305 10.2013 47.2987 10.3052 47.7642C10.3571 48 10.4119 48.2351 10.4672 48.4695C10.4963 48.5904 10.5259 48.7119 10.5566 48.8328C10.5108 48.9397 10.465 49.046 10.4214 49.1536C10.0744 49.9864 9.74816 50.8882 9.68782 51.8266C9.6258 52.783 9.8856 53.8429 10.1096 54.7514C10.346 55.7084 10.6309 56.6521 10.9684 57.5659C11.2779 58.4027 11.6416 59.2136 12.0265 60.0052C12.1522 60.2642 12.2813 60.5206 12.4143 60.7743C12.459 60.8606 12.5048 60.9456 12.5506 61.0306C12.6299 61.1768 12.6204 61.206 12.5802 61.3899C12.4478 61.991 12.4003 62.6684 12.1651 63.2295C12.5009 62.7985 12.6579 62.2108 12.8042 61.6642C12.9892 60.9636 13.14 60.2563 13.2562 59.5351C13.34 59.1751 13.173 60.0484 13.2562 59.5351Z" fill="url(#paint50_linear_4871_729)"/>
<path d="M17.2895 47.9077C17.5778 47.2204 17.7845 46.4912 17.6867 45.7168C17.5806 44.876 17.4856 44.0326 17.3956 43.1892C17.2353 41.6757 17.0727 40.1628 16.9409 38.6453C16.823 37.2799 16.7375 35.9304 16.7431 34.5563C16.7475 33.082 16.6928 31.4868 16.9867 30.043C16.6772 30.8618 16.5587 31.7564 16.4805 32.6437C16.4012 33.5495 16.3637 34.472 16.3866 35.3831C16.3972 35.8381 16.4213 36.293 16.4492 36.7466C16.4637 36.9803 16.4794 37.2134 16.4978 37.4472C16.3822 37.6199 16.2699 37.7945 16.1587 37.9725C15.7061 38.7031 15.2497 39.5312 15.1692 40.455C15.0094 42.2966 15.2502 44.1814 15.5843 45.9778C15.7531 46.8119 15.9587 47.6348 16.1961 48.4443C16.262 48.6701 16.3313 48.8953 16.4028 49.1184C16.5017 49.4272 16.2229 49.8297 16.1056 50.1186C15.9805 50.4287 15.8676 50.7847 15.6843 51.0556C16.0682 50.7362 16.3235 50.1983 16.5542 49.7281C16.8392 49.147 17.0744 48.5307 17.2895 47.9077C17.356 47.751 16.9755 48.8162 17.2895 47.9077Z" fill="url(#paint51_linear_4871_729)"/>
<path d="M23.2031 37.481C23.6015 36.9251 23.8881 36.2982 23.9244 35.5604C23.9641 34.7555 24.0088 33.9519 24.0613 33.149C24.1607 31.6354 24.2523 30.1213 24.3669 28.6091C24.4557 27.4502 24.5859 26.3092 24.7758 25.1663C25.0038 23.7936 25.1949 22.3039 25.6793 21.0195C24.8798 22.3836 24.5591 24.2239 24.3261 25.8364C24.268 26.2986 24.2116 26.7615 24.1669 27.2257C24.144 27.4601 24.1674 27.6574 24.0138 27.8148C23.8875 27.9463 23.7624 28.0791 23.6395 28.2152C23.1126 28.803 22.6165 29.4405 22.4187 30.2846C21.9913 32.1163 21.912 34.0196 21.9779 35.9117C22.0058 36.7286 22.0874 37.5434 22.1963 38.351C22.222 38.5436 22.2109 38.5722 22.1036 38.7382C21.9868 38.9188 21.8684 39.0981 21.7483 39.2755C21.5801 39.5212 21.4125 39.7769 21.2197 39.9947C22.0818 39.5152 22.6908 38.3842 23.2031 37.481C23.5624 36.9783 22.7701 38.2434 23.2031 37.481Z" fill="url(#paint52_linear_4871_729)"/>
<path d="M30.7581 28.696C31.1469 28.3281 31.5112 27.8659 31.666 27.2934C31.8649 26.5563 32.0191 25.7972 32.1939 25.0514C32.5113 23.7012 32.8336 22.3537 33.1677 21.0096C33.4275 19.9669 33.7058 18.9461 34.051 17.9373C34.484 16.6755 34.8969 15.3041 35.5517 14.1758C34.641 15.243 34.0879 16.7957 33.6309 18.1944C33.5052 18.5802 33.3879 18.97 33.28 19.3639C33.2359 19.5239 33.1979 19.9038 33.0767 19.9848C32.9633 20.0619 32.8498 20.1389 32.7375 20.2192C32.2414 20.5746 31.6911 20.9797 31.3525 21.5535C30.9464 22.2428 30.7039 23.15 30.481 23.9416C30.2307 24.8302 30.0681 25.7593 29.9346 26.6818C29.8195 27.4774 29.734 28.2763 29.6988 29.0819C29.6943 29.2008 29.6898 29.319 29.6859 29.4379C29.5345 29.5979 29.3826 29.7566 29.2272 29.9127C29.0144 30.1279 28.792 30.3809 28.54 30.5323C29.406 30.3424 30.1295 29.3555 30.7581 28.696C31.1637 28.3135 30.2189 29.2625 30.7581 28.696Z" fill="url(#paint53_linear_4871_729)"/>
<path d="M39.6279 21.8834C40.038 21.633 40.4385 21.291 40.6693 20.8049C40.9503 20.2158 41.2017 19.6041 41.4632 19.0024C41.98 17.8104 42.4996 16.6209 43.0264 15.4355C43.4047 14.5847 43.7896 13.7513 44.2355 12.9464C44.5606 12.3593 44.8936 11.7782 45.2383 11.2064C45.5445 10.6977 45.849 10.1498 46.2334 9.71875C45.7054 10.1033 45.2786 10.7209 44.8942 11.2894C44.4629 11.9269 44.0611 12.5997 43.7086 13.3023C43.5516 13.6151 43.3996 13.9312 43.2522 14.25C43.1616 14.4453 43.1231 14.4645 42.951 14.5343C42.7851 14.6007 42.6219 14.6724 42.4588 14.7488C42.1308 14.9035 41.7872 15.0715 41.5006 15.3219C41.2358 15.5537 41.0464 15.8658 40.8548 16.1786C40.0597 17.4816 39.4826 18.9301 39.0239 20.4383C38.8552 20.9908 38.701 21.5507 38.5697 22.1172C38.5004 22.4147 38.2328 22.5043 38.0116 22.6498C37.7931 22.7932 37.5618 22.9666 37.3193 23.0469C37.697 23.0549 38.0641 22.861 38.3976 22.6724C38.8178 22.4333 39.2284 22.171 39.6279 21.8834C40.0547 21.6231 39.0552 22.2958 39.6279 21.8834Z" fill="url(#paint54_linear_4871_729)"/>
<path d="M49.4611 17.3377C50.4942 17.007 51.0456 15.9365 51.6825 14.9981C52.3323 14.0417 52.9871 13.0907 53.6435 12.1404C54.1369 11.4278 54.6408 10.7311 55.1917 10.0796C55.8549 9.29528 56.5331 8.40736 57.3164 7.78906C56.3348 8.2918 55.4627 9.27137 54.7397 10.1852C54.5207 10.4615 54.3078 10.7451 54.0989 11.0326C54.0056 11.1608 53.8977 11.3999 53.7542 11.4191C53.6067 11.4384 53.4597 11.4616 53.3128 11.4889C52.682 11.6064 52.135 11.7784 51.6484 12.2845C50.6701 13.3026 49.8684 14.5272 49.184 15.8362C48.9337 16.3137 48.6963 16.8018 48.4772 17.3006C48.4532 17.3557 48.4286 17.4108 48.4046 17.4666C48.2476 17.5191 48.0895 17.5695 47.9336 17.626C47.6945 17.7123 47.4414 17.8332 47.1895 17.8538C47.5308 17.9461 47.8968 17.8445 48.2325 17.7621C48.6504 17.6625 49.0594 17.5084 49.4611 17.3377C49.8885 17.2009 48.879 17.5848 49.4611 17.3377Z" fill="url(#paint55_linear_4871_729)"/>
<path d="M62.4021 14.0699C62.078 14.4312 61.6685 14.663 61.2243 14.7108C60.6282 14.7573 60.0315 14.8755 59.4371 14.9585C58.2694 15.1219 57.1084 15.3192 55.9424 15.4958C54.9474 15.6459 53.9356 15.8677 52.9634 16.1599C52.3924 16.3313 51.8231 16.5179 51.2555 16.7072C50.8733 16.8333 50.4521 16.9409 50.1001 17.1647C50.4761 16.8254 50.9543 16.6368 51.3957 16.4561C51.993 16.2131 52.6042 15.9846 53.2227 15.8299C53.5149 15.7568 53.8082 15.6884 54.1021 15.6213C54.263 15.5848 54.4239 15.5496 54.5848 15.5151C54.7664 15.4759 54.8641 15.4885 54.9675 15.3039C55.3575 14.6085 55.7944 14.1908 56.4698 13.9644C57.799 13.5194 59.1711 13.3248 60.5472 13.2318C61.1679 13.19 61.7925 13.2033 62.4133 13.2172C62.5172 13.2199 62.6205 13.2225 62.725 13.2265C62.863 13.2305 62.8932 13.18 62.9988 13.0645C63.1871 12.8579 63.4642 12.6189 63.577 12.3359C63.6173 13.0412 62.7982 13.708 62.4021 14.0699C63.2586 13.2876 62.1306 14.3728 62.4021 14.0699Z" fill="url(#paint56_linear_4871_729)"/>
<path d="M60.5996 16.131C60.1867 15.7345 59.7168 15.6256 59.1967 15.6376C58.5737 15.6522 57.958 15.6867 57.3379 15.7538C56.1657 15.8787 55.0137 16.0699 53.8561 16.321C53.0141 16.5036 52.1772 16.7188 51.3391 16.9193C50.3262 17.1617 49.3116 17.5602 48.2842 17.699C48.7568 17.7369 49.2384 17.6452 49.7027 17.5502C50.3463 17.4174 50.99 17.2633 51.6308 17.1099C51.923 17.0402 52.2152 16.9658 52.5068 16.8894C52.6655 16.8483 52.8253 16.8064 52.9851 16.7639C53.194 16.7088 53.2192 16.75 53.3862 16.8894C53.8745 17.3005 54.3539 17.5476 54.9567 17.5356C56.3596 17.5077 57.7541 17.3198 59.1498 17.1724C59.6922 17.1159 60.2331 17.0429 60.7733 16.9658C60.9912 16.9339 61.051 16.9001 61.2253 17.082C61.4108 17.276 61.6801 17.5044 61.789 17.7774C61.8002 17.0814 61.027 16.4538 60.5996 16.131C61.037 16.4611 60.3186 15.8601 60.5996 16.131Z" fill="url(#paint57_linear_4871_729)"/>
<path d="M111.985 0L113.761 3.59795L117.731 4.17559L114.858 6.97485L115.537 10.93L111.985 9.06264L108.434 10.93L109.112 6.97485L106.24 4.17559L110.21 3.59795L111.985 0Z" fill="#FFDB78"/>
<path d="M102.887 11.6929L101.327 9.357L102.367 6.74931L99.664 7.50969L97.5049 5.71484L97.3929 8.52059L95.0181 10.0213L97.6529 10.9933L98.3449 13.7159L100.085 11.5096L102.887 11.6929Z" fill="#FFDB78"/>
<path d="M121.084 11.6929L122.643 9.357L121.604 6.74931L124.308 7.50969L126.467 5.71484L126.579 8.52059L128.953 10.0213L126.318 10.9933L125.627 13.7159L123.887 11.5096L121.084 11.6929Z" fill="#FFDB78"/>
<defs>
<linearGradient id="paint0_linear_4871_729" x1="160.941" y1="78.2705" x2="213.691" y2="78.2705" gradientUnits="userSpaceOnUse">
<stop stop-color="#BA7418"/>
<stop offset="0.1534" stop-color="#DCA94A"/>
<stop offset="0.2701" stop-color="#F1CB6A"/>
<stop offset="0.3333" stop-color="#F9D876"/>
<stop offset="0.38" stop-color="#FBDD8B"/>
<stop offset="0.4675" stop-color="#FEE6AC"/>
<stop offset="0.5152" stop-color="#FFE9B9"/>
<stop offset="0.5649" stop-color="#FDE4A4"/>
<stop offset="0.6583" stop-color="#FADB83"/>
<stop offset="0.7091" stop-color="#F9D876"/>
<stop offset="1" stop-color="#BA7418"/>
</linearGradient>
<linearGradient id="paint1_linear_4871_729" x1="179.306" y1="135.666" x2="206.395" y2="135.666" gradientUnits="userSpaceOnUse">
<stop stop-color="#BA7418"/>
<stop offset="0.1534" stop-color="#DCA94A"/>
<stop offset="0.2701" stop-color="#F1CB6A"/>
<stop offset="0.3333" stop-color="#F9D876"/>
<stop offset="0.38" stop-color="#FBDD8B"/>
<stop offset="0.4675" stop-color="#FEE6AC"/>
<stop offset="0.5152" stop-color="#FFE9B9"/>
<stop offset="0.5649" stop-color="#FDE4A4"/>
<stop offset="0.6583" stop-color="#FADB83"/>
<stop offset="0.7091" stop-color="#F9D876"/>
<stop offset="1" stop-color="#BA7418"/>
</linearGradient>
<linearGradient id="paint2_linear_4871_729" x1="189.063" y1="126.591" x2="214.133" y2="126.591" gradientUnits="userSpaceOnUse">
<stop stop-color="#BA7418"/>
<stop offset="0.1534" stop-color="#DCA94A"/>
<stop offset="0.2701" stop-color="#F1CB6A"/>
<stop offset="0.3333" stop-color="#F9D876"/>
<stop offset="0.38" stop-color="#FBDD8B"/>
<stop offset="0.4675" stop-color="#FEE6AC"/>
<stop offset="0.5152" stop-color="#FFE9B9"/>
<stop offset="0.5649" stop-color="#FDE4A4"/>
<stop offset="0.6583" stop-color="#FADB83"/>
<stop offset="0.7091" stop-color="#F9D876"/>
<stop offset="1" stop-color="#BA7418"/>
</linearGradient>
<linearGradient id="paint3_linear_4871_729" x1="197.615" y1="116.061" x2="219.84" y2="116.061" gradientUnits="userSpaceOnUse">
<stop stop-color="#BA7418"/>
<stop offset="0.1534" stop-color="#DCA94A"/>
<stop offset="0.2701" stop-color="#F1CB6A"/>
<stop offset="0.3333" stop-color="#F9D876"/>
<stop offset="0.38" stop-color="#FBDD8B"/>
<stop offset="0.4675" stop-color="#FEE6AC"/>
<stop offset="0.5152" stop-color="#FFE9B9"/>
<stop offset="0.5649" stop-color="#FDE4A4"/>
<stop offset="0.6583" stop-color="#FADB83"/>
<stop offset="0.7091" stop-color="#F9D876"/>
<stop offset="1" stop-color="#BA7418"/>
</linearGradient>
<linearGradient id="paint4_linear_4871_729" x1="204.619" y1="104.121" x2="223.331" y2="104.121" gradientUnits="userSpaceOnUse">
<stop stop-color="#BA7418"/>
<stop offset="0.1534" stop-color="#DCA94A"/>
<stop offset="0.2701" stop-color="#F1CB6A"/>
<stop offset="0.3333" stop-color="#F9D876"/>
<stop offset="0.38" stop-color="#FBDD8B"/>
<stop offset="0.4675" stop-color="#FEE6AC"/>
<stop offset="0.5152" stop-color="#FFE9B9"/>
<stop offset="0.5649" stop-color="#FDE4A4"/>
<stop offset="0.6583" stop-color="#FADB83"/>
<stop offset="0.7091" stop-color="#F9D876"/>
<stop offset="1" stop-color="#BA7418"/>
</linearGradient>
<linearGradient id="paint5_linear_4871_729" x1="209.749" y1="91.2483" x2="224.511" y2="91.2483" gradientUnits="userSpaceOnUse">
<stop stop-color="#BA7418"/>
<stop offset="0.1534" stop-color="#DCA94A"/>
<stop offset="0.2701" stop-color="#F1CB6A"/>
<stop offset="0.3333" stop-color="#F9D876"/>
<stop offset="0.38" stop-color="#FBDD8B"/>
<stop offset="0.4675" stop-color="#FEE6AC"/>
<stop offset="0.5152" stop-color="#FFE9B9"/>
<stop offset="0.5649" stop-color="#FDE4A4"/>
<stop offset="0.6583" stop-color="#FADB83"/>
<stop offset="0.7091" stop-color="#F9D876"/>
<stop offset="1" stop-color="#BA7418"/>
</linearGradient>
<linearGradient id="paint6_linear_4871_729" x1="212.699" y1="77.9542" x2="223.398" y2="77.9542" gradientUnits="userSpaceOnUse">
<stop stop-color="#BA7418"/>
<stop offset="0.1534" stop-color="#DCA94A"/>
<stop offset="0.2701" stop-color="#F1CB6A"/>
<stop offset="0.3333" stop-color="#F9D876"/>
<stop offset="0.38" stop-color="#FBDD8B"/>
<stop offset="0.4675" stop-color="#FEE6AC"/>
<stop offset="0.5152" stop-color="#FFE9B9"/>
<stop offset="0.5649" stop-color="#FDE4A4"/>
<stop offset="0.6583" stop-color="#FADB83"/>
<stop offset="0.7091" stop-color="#F9D876"/>
<stop offset="1" stop-color="#BA7418"/>
</linearGradient>
<linearGradient id="paint7_linear_4871_729" x1="213.222" y1="64.7253" x2="220.087" y2="64.7253" gradientUnits="userSpaceOnUse">
<stop stop-color="#BA7418"/>
<stop offset="0.1534" stop-color="#DCA94A"/>
<stop offset="0.2701" stop-color="#F1CB6A"/>
<stop offset="0.3333" stop-color="#F9D876"/>
<stop offset="0.38" stop-color="#FBDD8B"/>
<stop offset="0.4675" stop-color="#FEE6AC"/>
<stop offset="0.5152" stop-color="#FFE9B9"/>
<stop offset="0.5649" stop-color="#FDE4A4"/>
<stop offset="0.6583" stop-color="#FADB83"/>
<stop offset="0.7091" stop-color="#F9D876"/>
<stop offset="1" stop-color="#BA7418"/>
</linearGradient>
<linearGradient id="paint8_linear_4871_729" x1="211.095" y1="52.0933" x2="214.871" y2="52.0933" gradientUnits="userSpaceOnUse">
<stop stop-color="#BA7418"/>
<stop offset="0.1534" stop-color="#DCA94A"/>
<stop offset="0.2701" stop-color="#F1CB6A"/>
<stop offset="0.3333" stop-color="#F9D876"/>
<stop offset="0.38" stop-color="#FBDD8B"/>
<stop offset="0.4675" stop-color="#FEE6AC"/>
<stop offset="0.5152" stop-color="#FFE9B9"/>
<stop offset="0.5649" stop-color="#FDE4A4"/>
<stop offset="0.6583" stop-color="#FADB83"/>
<stop offset="0.7091" stop-color="#F9D876"/>
<stop offset="1" stop-color="#BA7418"/>
</linearGradient>
<linearGradient id="paint9_linear_4871_729" x1="206.801" y1="40.5492" x2="209.394" y2="40.5492" gradientUnits="userSpaceOnUse">
<stop stop-color="#BA7418"/>
<stop offset="0.1534" stop-color="#DCA94A"/>
<stop offset="0.2701" stop-color="#F1CB6A"/>
<stop offset="0.3333" stop-color="#F9D876"/>
<stop offset="0.38" stop-color="#FBDD8B"/>
<stop offset="0.4675" stop-color="#FEE6AC"/>
<stop offset="0.5152" stop-color="#FFE9B9"/>
<stop offset="0.5649" stop-color="#FDE4A4"/>
<stop offset="0.6583" stop-color="#FADB83"/>
<stop offset="0.7091" stop-color="#F9D876"/>
<stop offset="1" stop-color="#BA7418"/>
</linearGradient>
<linearGradient id="paint10_linear_4871_729" x1="198.832" y1="30.5083" x2="203.291" y2="30.5083" gradientUnits="userSpaceOnUse">
<stop stop-color="#BA7418"/>
<stop offset="0.1534" stop-color="#DCA94A"/>
<stop offset="0.2701" stop-color="#F1CB6A"/>
<stop offset="0.3333" stop-color="#F9D876"/>
<stop offset="0.38" stop-color="#FBDD8B"/>
<stop offset="0.4675" stop-color="#FEE6AC"/>
<stop offset="0.5152" stop-color="#FFE9B9"/>
<stop offset="0.5649" stop-color="#FDE4A4"/>
<stop offset="0.6583" stop-color="#FADB83"/>
<stop offset="0.7091" stop-color="#F9D876"/>
<stop offset="1" stop-color="#BA7418"/>
</linearGradient>
<linearGradient id="paint11_linear_4871_729" x1="188.961" y1="22.3544" x2="195.973" y2="22.3544" gradientUnits="userSpaceOnUse">
<stop stop-color="#BA7418"/>
<stop offset="0.1534" stop-color="#DCA94A"/>
<stop offset="0.2701" stop-color="#F1CB6A"/>
<stop offset="0.3333" stop-color="#F9D876"/>
<stop offset="0.38" stop-color="#FBDD8B"/>
<stop offset="0.4675" stop-color="#FEE6AC"/>
<stop offset="0.5152" stop-color="#FFE9B9"/>
<stop offset="0.5649" stop-color="#FDE4A4"/>
<stop offset="0.6583" stop-color="#FADB83"/>
<stop offset="0.7091" stop-color="#F9D876"/>
<stop offset="1" stop-color="#BA7418"/>
</linearGradient>
<linearGradient id="paint12_linear_4871_729" x1="178.278" y1="16.3835" x2="187.192" y2="16.3835" gradientUnits="userSpaceOnUse">
<stop stop-color="#BA7418"/>
<stop offset="0.1534" stop-color="#DCA94A"/>
<stop offset="0.2701" stop-color="#F1CB6A"/>
<stop offset="0.3333" stop-color="#F9D876"/>
<stop offset="0.38" stop-color="#FBDD8B"/>
<stop offset="0.4675" stop-color="#FEE6AC"/>
<stop offset="0.5152" stop-color="#FFE9B9"/>
<stop offset="0.5649" stop-color="#FDE4A4"/>
<stop offset="0.6583" stop-color="#FADB83"/>
<stop offset="0.7091" stop-color="#F9D876"/>
<stop offset="1" stop-color="#BA7418"/>
</linearGradient>
<linearGradient id="paint13_linear_4871_729" x1="167.197" y1="12.8409" x2="177.322" y2="12.8409" gradientUnits="userSpaceOnUse">
<stop stop-color="#BA7418"/>
<stop offset="0.1534" stop-color="#DCA94A"/>
<stop offset="0.2701" stop-color="#F1CB6A"/>
<stop offset="0.3333" stop-color="#F9D876"/>
<stop offset="0.38" stop-color="#FBDD8B"/>
<stop offset="0.4675" stop-color="#FEE6AC"/>
<stop offset="0.5152" stop-color="#FFE9B9"/>
<stop offset="0.5649" stop-color="#FDE4A4"/>
<stop offset="0.6583" stop-color="#FADB83"/>
<stop offset="0.7091" stop-color="#F9D876"/>
<stop offset="1" stop-color="#BA7418"/>
</linearGradient>
<linearGradient id="paint14_linear_4871_729" x1="178.758" y1="122.427" x2="187.286" y2="122.427" gradientUnits="userSpaceOnUse">
<stop stop-color="#BA7418"/>
<stop offset="0.1534" stop-color="#DCA94A"/>
<stop offset="0.2701" stop-color="#F1CB6A"/>
<stop offset="0.3333" stop-color="#F9D876"/>
<stop offset="0.38" stop-color="#FBDD8B"/>
<stop offset="0.4675" stop-color="#FEE6AC"/>
<stop offset="0.5152" stop-color="#FFE9B9"/>
<stop offset="0.5649" stop-color="#FDE4A4"/>
<stop offset="0.6583" stop-color="#FADB83"/>
<stop offset="0.7091" stop-color="#F9D876"/>
<stop offset="1" stop-color="#BA7418"/>
</linearGradient>
<linearGradient id="paint15_linear_4871_729" x1="188.271" y1="116.615" x2="193.965" y2="116.615" gradientUnits="userSpaceOnUse">
<stop stop-color="#BA7418"/>
<stop offset="0.1534" stop-color="#DCA94A"/>
<stop offset="0.2701" stop-color="#F1CB6A"/>
<stop offset="0.3333" stop-color="#F9D876"/>
<stop offset="0.38" stop-color="#FBDD8B"/>
<stop offset="0.4675" stop-color="#FEE6AC"/>
<stop offset="0.5152" stop-color="#FFE9B9"/>
<stop offset="0.5649" stop-color="#FDE4A4"/>
<stop offset="0.6583" stop-color="#FADB83"/>
<stop offset="0.7091" stop-color="#F9D876"/>
<stop offset="1" stop-color="#BA7418"/>
</linearGradient>
<linearGradient id="paint16_linear_4871_729" x1="196.646" y1="109.135" x2="200.721" y2="109.135" gradientUnits="userSpaceOnUse">
<stop stop-color="#BA7418"/>
<stop offset="0.1534" stop-color="#DCA94A"/>
<stop offset="0.2701" stop-color="#F1CB6A"/>
<stop offset="0.3333" stop-color="#F9D876"/>
<stop offset="0.38" stop-color="#FBDD8B"/>
<stop offset="0.4675" stop-color="#FEE6AC"/>
<stop offset="0.5152" stop-color="#FFE9B9"/>
<stop offset="0.5649" stop-color="#FDE4A4"/>
<stop offset="0.6583" stop-color="#FADB83"/>
<stop offset="0.7091" stop-color="#F9D876"/>
<stop offset="1" stop-color="#BA7418"/>
</linearGradient>
<linearGradient id="paint17_linear_4871_729" x1="199.977" y1="100.238" x2="206.445" y2="100.238" gradientUnits="userSpaceOnUse">
<stop stop-color="#BA7418"/>
<stop offset="0.1534" stop-color="#DCA94A"/>
<stop offset="0.2701" stop-color="#F1CB6A"/>
<stop offset="0.3333" stop-color="#F9D876"/>
<stop offset="0.38" stop-color="#FBDD8B"/>
<stop offset="0.4675" stop-color="#FEE6AC"/>
<stop offset="0.5152" stop-color="#FFE9B9"/>
<stop offset="0.5649" stop-color="#FDE4A4"/>
<stop offset="0.6583" stop-color="#FADB83"/>
<stop offset="0.7091" stop-color="#F9D876"/>
<stop offset="1" stop-color="#BA7418"/>
</linearGradient>
<linearGradient id="paint18_linear_4871_729" x1="201.728" y1="90.2516" x2="210.444" y2="90.2516" gradientUnits="userSpaceOnUse">
<stop stop-color="#BA7418"/>
<stop offset="0.1534" stop-color="#DCA94A"/>
<stop offset="0.2701" stop-color="#F1CB6A"/>
<stop offset="0.3333" stop-color="#F9D876"/>
<stop offset="0.38" stop-color="#FBDD8B"/>
<stop offset="0.4675" stop-color="#FEE6AC"/>
<stop offset="0.5152" stop-color="#FFE9B9"/>
<stop offset="0.5649" stop-color="#FDE4A4"/>
<stop offset="0.6583" stop-color="#FADB83"/>
<stop offset="0.7091" stop-color="#F9D876"/>
<stop offset="1" stop-color="#BA7418"/>
</linearGradient>
<linearGradient id="paint19_linear_4871_729" x1="202.022" y1="79.5506" x2="212.582" y2="79.5506" gradientUnits="userSpaceOnUse">
<stop stop-color="#BA7418"/>
<stop offset="0.1534" stop-color="#DCA94A"/>
<stop offset="0.2701" stop-color="#F1CB6A"/>
<stop offset="0.3333" stop-color="#F9D876"/>
<stop offset="0.38" stop-color="#FBDD8B"/>
<stop offset="0.4675" stop-color="#FEE6AC"/>
<stop offset="0.5152" stop-color="#FFE9B9"/>
<stop offset="0.5649" stop-color="#FDE4A4"/>
<stop offset="0.6583" stop-color="#FADB83"/>
<stop offset="0.7091" stop-color="#F9D876"/>
<stop offset="1" stop-color="#BA7418"/>
</linearGradient>
<linearGradient id="paint20_linear_4871_729" x1="200.826" y1="68.595" x2="212.987" y2="68.595" gradientUnits="userSpaceOnUse">
<stop stop-color="#BA7418"/>
<stop offset="0.1534" stop-color="#DCA94A"/>
<stop offset="0.2701" stop-color="#F1CB6A"/>
<stop offset="0.3333" stop-color="#F9D876"/>
<stop offset="0.38" stop-color="#FBDD8B"/>
<stop offset="0.4675" stop-color="#FEE6AC"/>
<stop offset="0.5152" stop-color="#FFE9B9"/>
<stop offset="0.5649" stop-color="#FDE4A4"/>
<stop offset="0.6583" stop-color="#FADB83"/>
<stop offset="0.7091" stop-color="#F9D876"/>
<stop offset="1" stop-color="#BA7418"/>
</linearGradient>
<linearGradient id="paint21_linear_4871_729" x1="198.117" y1="57.8095" x2="211.532" y2="57.8095" gradientUnits="userSpaceOnUse">
<stop stop-color="#BA7418"/>
<stop offset="0.1534" stop-color="#DCA94A"/>
<stop offset="0.2701" stop-color="#F1CB6A"/>
<stop offset="0.3333" stop-color="#F9D876"/>
<stop offset="0.38" stop-color="#FBDD8B"/>
<stop offset="0.4675" stop-color="#FEE6AC"/>
<stop offset="0.5152" stop-color="#FFE9B9"/>
<stop offset="0.5649" stop-color="#FDE4A4"/>
<stop offset="0.6583" stop-color="#FADB83"/>
<stop offset="0.7091" stop-color="#F9D876"/>
<stop offset="1" stop-color="#BA7418"/>
</linearGradient>
<linearGradient id="paint22_linear_4871_729" x1="193.949" y1="47.6248" x2="208.066" y2="47.6248" gradientUnits="userSpaceOnUse">
<stop stop-color="#BA7418"/>
<stop offset="0.1534" stop-color="#DCA94A"/>
<stop offset="0.2701" stop-color="#F1CB6A"/>
<stop offset="0.3333" stop-color="#F9D876"/>
<stop offset="0.38" stop-color="#FBDD8B"/>
<stop offset="0.4675" stop-color="#FEE6AC"/>
<stop offset="0.5152" stop-color="#FFE9B9"/>
<stop offset="0.5649" stop-color="#FDE4A4"/>
<stop offset="0.6583" stop-color="#FADB83"/>
<stop offset="0.7091" stop-color="#F9D876"/>
<stop offset="1" stop-color="#BA7418"/>
</linearGradient>
<linearGradient id="paint23_linear_4871_729" x1="188.444" y1="38.2997" x2="202.682" y2="38.2997" gradientUnits="userSpaceOnUse">
<stop stop-color="#BA7418"/>
<stop offset="0.1534" stop-color="#DCA94A"/>
<stop offset="0.2701" stop-color="#F1CB6A"/>
<stop offset="0.3333" stop-color="#F9D876"/>
<stop offset="0.38" stop-color="#FBDD8B"/>
<stop offset="0.4675" stop-color="#FEE6AC"/>
<stop offset="0.5152" stop-color="#FFE9B9"/>
<stop offset="0.5649" stop-color="#FDE4A4"/>
<stop offset="0.6583" stop-color="#FADB83"/>
<stop offset="0.7091" stop-color="#F9D876"/>
<stop offset="1" stop-color="#BA7418"/>
</linearGradient>
<linearGradient id="paint24_linear_4871_729" x1="181.778" y1="29.6248" x2="195.529" y2="29.6248" gradientUnits="userSpaceOnUse">
<stop stop-color="#BA7418"/>
<stop offset="0.1534" stop-color="#DCA94A"/>
<stop offset="0.2701" stop-color="#F1CB6A"/>
<stop offset="0.3333" stop-color="#F9D876"/>
<stop offset="0.38" stop-color="#FBDD8B"/>
<stop offset="0.4675" stop-color="#FEE6AC"/>
<stop offset="0.5152" stop-color="#FFE9B9"/>
<stop offset="0.5649" stop-color="#FDE4A4"/>
<stop offset="0.6583" stop-color="#FADB83"/>
<stop offset="0.7091" stop-color="#F9D876"/>
<stop offset="1" stop-color="#BA7418"/>
</linearGradient>
<linearGradient id="paint25_linear_4871_729" x1="174.162" y1="23.6639" x2="186.905" y2="23.6639" gradientUnits="userSpaceOnUse">
<stop stop-color="#BA7418"/>
<stop offset="0.1534" stop-color="#DCA94A"/>
<stop offset="0.2701" stop-color="#F1CB6A"/>
<stop offset="0.3333" stop-color="#F9D876"/>
<stop offset="0.38" stop-color="#FBDD8B"/>
<stop offset="0.4675" stop-color="#FEE6AC"/>
<stop offset="0.5152" stop-color="#FFE9B9"/>
<stop offset="0.5649" stop-color="#FDE4A4"/>
<stop offset="0.6583" stop-color="#FADB83"/>
<stop offset="0.7091" stop-color="#F9D876"/>
<stop offset="1" stop-color="#BA7418"/>
</linearGradient>
<linearGradient id="paint26_linear_4871_729" x1="165.84" y1="20.0828" x2="177.172" y2="20.0828" gradientUnits="userSpaceOnUse">
<stop stop-color="#BA7418"/>
<stop offset="0.1534" stop-color="#DCA94A"/>
<stop offset="0.2701" stop-color="#F1CB6A"/>
<stop offset="0.3333" stop-color="#F9D876"/>
<stop offset="0.38" stop-color="#FBDD8B"/>
<stop offset="0.4675" stop-color="#FEE6AC"/>
<stop offset="0.5152" stop-color="#FFE9B9"/>
<stop offset="0.5649" stop-color="#FDE4A4"/>
<stop offset="0.6583" stop-color="#FADB83"/>
<stop offset="0.7091" stop-color="#F9D876"/>
<stop offset="1" stop-color="#BA7418"/>
</linearGradient>
<linearGradient id="paint27_linear_4871_729" x1="160.934" y1="16.575" x2="174.43" y2="16.575" gradientUnits="userSpaceOnUse">
<stop stop-color="#BA7418"/>
<stop offset="0.1534" stop-color="#DCA94A"/>
<stop offset="0.2701" stop-color="#F1CB6A"/>
<stop offset="0.3333" stop-color="#F9D876"/>
<stop offset="0.38" stop-color="#FBDD8B"/>
<stop offset="0.4675" stop-color="#FEE6AC"/>
<stop offset="0.5152" stop-color="#FFE9B9"/>
<stop offset="0.5649" stop-color="#FDE4A4"/>
<stop offset="0.6583" stop-color="#FADB83"/>
<stop offset="0.7091" stop-color="#F9D876"/>
<stop offset="1" stop-color="#BA7418"/>
</linearGradient>
<linearGradient id="paint28_linear_4871_729" x1="162.882" y1="15.0723" x2="176.213" y2="15.0723" gradientUnits="userSpaceOnUse">
<stop stop-color="#BA7418"/>
<stop offset="0.1534" stop-color="#DCA94A"/>
<stop offset="0.2701" stop-color="#F1CB6A"/>
<stop offset="0.3333" stop-color="#F9D876"/>
<stop offset="0.38" stop-color="#FBDD8B"/>
<stop offset="0.4675" stop-color="#FEE6AC"/>
<stop offset="0.5152" stop-color="#FFE9B9"/>
<stop offset="0.5649" stop-color="#FDE4A4"/>
<stop offset="0.6583" stop-color="#FADB83"/>
<stop offset="0.7091" stop-color="#F9D876"/>
<stop offset="1" stop-color="#BA7418"/>
</linearGradient>
<linearGradient id="paint29_linear_4871_729" x1="10.8768" y1="78.265" x2="63.5566" y2="78.265" gradientUnits="userSpaceOnUse">
<stop stop-color="#BA7418"/>
<stop offset="0.1534" stop-color="#DCA94A"/>
<stop offset="0.2701" stop-color="#F1CB6A"/>
<stop offset="0.3333" stop-color="#F9D876"/>
<stop offset="0.38" stop-color="#FBDD8B"/>
<stop offset="0.4675" stop-color="#FEE6AC"/>
<stop offset="0.5152" stop-color="#FFE9B9"/>
<stop offset="0.5649" stop-color="#FDE4A4"/>
<stop offset="0.6583" stop-color="#FADB83"/>
<stop offset="0.7091" stop-color="#F9D876"/>
<stop offset="1" stop-color="#BA7418"/>
</linearGradient>
<linearGradient id="paint30_linear_4871_729" x1="37.2256" y1="122.427" x2="45.7541" y2="122.427" gradientUnits="userSpaceOnUse">
<stop stop-color="#BA7418"/>
<stop offset="0.1534" stop-color="#DCA94A"/>
<stop offset="0.2701" stop-color="#F1CB6A"/>
<stop offset="0.3333" stop-color="#F9D876"/>
<stop offset="0.38" stop-color="#FBDD8B"/>
<stop offset="0.4675" stop-color="#FEE6AC"/>
<stop offset="0.5152" stop-color="#FFE9B9"/>
<stop offset="0.5649" stop-color="#FDE4A4"/>
<stop offset="0.6583" stop-color="#FADB83"/>
<stop offset="0.7091" stop-color="#F9D876"/>
<stop offset="1" stop-color="#BA7418"/>
</linearGradient>
<linearGradient id="paint31_linear_4871_729" x1="30.5472" y1="116.615" x2="36.2419" y2="116.615" gradientUnits="userSpaceOnUse">
<stop stop-color="#BA7418"/>
<stop offset="0.1534" stop-color="#DCA94A"/>
<stop offset="0.2701" stop-color="#F1CB6A"/>
<stop offset="0.3333" stop-color="#F9D876"/>
<stop offset="0.38" stop-color="#FBDD8B"/>
<stop offset="0.4675" stop-color="#FEE6AC"/>
<stop offset="0.5152" stop-color="#FFE9B9"/>
<stop offset="0.5649" stop-color="#FDE4A4"/>
<stop offset="0.6583" stop-color="#FADB83"/>
<stop offset="0.7091" stop-color="#F9D876"/>
<stop offset="1" stop-color="#BA7418"/>
</linearGradient>
<linearGradient id="paint32_linear_4871_729" x1="23.7915" y1="109.135" x2="27.8664" y2="109.135" gradientUnits="userSpaceOnUse">
<stop stop-color="#BA7418"/>
<stop offset="0.1534" stop-color="#DCA94A"/>
<stop offset="0.2701" stop-color="#F1CB6A"/>
<stop offset="0.3333" stop-color="#F9D876"/>
<stop offset="0.38" stop-color="#FBDD8B"/>
<stop offset="0.4675" stop-color="#FEE6AC"/>
<stop offset="0.5152" stop-color="#FFE9B9"/>
<stop offset="0.5649" stop-color="#FDE4A4"/>
<stop offset="0.6583" stop-color="#FADB83"/>
<stop offset="0.7091" stop-color="#F9D876"/>
<stop offset="1" stop-color="#BA7418"/>
</linearGradient>
<linearGradient id="paint33_linear_4871_729" x1="18.068" y1="100.238" x2="24.5356" y2="100.238" gradientUnits="userSpaceOnUse">
<stop stop-color="#BA7418"/>
<stop offset="0.1534" stop-color="#DCA94A"/>
<stop offset="0.2701" stop-color="#F1CB6A"/>
<stop offset="0.3333" stop-color="#F9D876"/>
<stop offset="0.38" stop-color="#FBDD8B"/>
<stop offset="0.4675" stop-color="#FEE6AC"/>
<stop offset="0.5152" stop-color="#FFE9B9"/>
<stop offset="0.5649" stop-color="#FDE4A4"/>
<stop offset="0.6583" stop-color="#FADB83"/>
<stop offset="0.7091" stop-color="#F9D876"/>
<stop offset="1" stop-color="#BA7418"/>
</linearGradient>
<linearGradient id="paint34_linear_4871_729" x1="14.0683" y1="90.2516" x2="22.7848" y2="90.2516" gradientUnits="userSpaceOnUse">
<stop stop-color="#BA7418"/>
<stop offset="0.1534" stop-color="#DCA94A"/>
<stop offset="0.2701" stop-color="#F1CB6A"/>
<stop offset="0.3333" stop-color="#F9D876"/>
<stop offset="0.38" stop-color="#FBDD8B"/>
<stop offset="0.4675" stop-color="#FEE6AC"/>
<stop offset="0.5152" stop-color="#FFE9B9"/>
<stop offset="0.5649" stop-color="#FDE4A4"/>
<stop offset="0.6583" stop-color="#FADB83"/>
<stop offset="0.7091" stop-color="#F9D876"/>
<stop offset="1" stop-color="#BA7418"/>
</linearGradient>
<linearGradient id="paint35_linear_4871_729" x1="11.9295" y1="79.5506" x2="22.4897" y2="79.5506" gradientUnits="userSpaceOnUse">
<stop stop-color="#BA7418"/>
<stop offset="0.1534" stop-color="#DCA94A"/>
<stop offset="0.2701" stop-color="#F1CB6A"/>
<stop offset="0.3333" stop-color="#F9D876"/>
<stop offset="0.38" stop-color="#FBDD8B"/>
<stop offset="0.4675" stop-color="#FEE6AC"/>
<stop offset="0.5152" stop-color="#FFE9B9"/>
<stop offset="0.5649" stop-color="#FDE4A4"/>
<stop offset="0.6583" stop-color="#FADB83"/>
<stop offset="0.7091" stop-color="#F9D876"/>
<stop offset="1" stop-color="#BA7418"/>
</linearGradient>
<linearGradient id="paint36_linear_4871_729" x1="11.525" y1="68.595" x2="23.6859" y2="68.595" gradientUnits="userSpaceOnUse">
<stop stop-color="#BA7418"/>
<stop offset="0.1534" stop-color="#DCA94A"/>
<stop offset="0.2701" stop-color="#F1CB6A"/>
<stop offset="0.3333" stop-color="#F9D876"/>
<stop offset="0.38" stop-color="#FBDD8B"/>
<stop offset="0.4675" stop-color="#FEE6AC"/>
<stop offset="0.5152" stop-color="#FFE9B9"/>
<stop offset="0.5649" stop-color="#FDE4A4"/>
<stop offset="0.6583" stop-color="#FADB83"/>
<stop offset="0.7091" stop-color="#F9D876"/>
<stop offset="1" stop-color="#BA7418"/>
</linearGradient>
<linearGradient id="paint37_linear_4871_729" x1="12.9801" y1="57.8095" x2="26.3951" y2="57.8095" gradientUnits="userSpaceOnUse">
<stop stop-color="#BA7418"/>
<stop offset="0.1534" stop-color="#DCA94A"/>
<stop offset="0.2701" stop-color="#F1CB6A"/>
<stop offset="0.3333" stop-color="#F9D876"/>
<stop offset="0.38" stop-color="#FBDD8B"/>
<stop offset="0.4675" stop-color="#FEE6AC"/>
<stop offset="0.5152" stop-color="#FFE9B9"/>
<stop offset="0.5649" stop-color="#FDE4A4"/>
<stop offset="0.6583" stop-color="#FADB83"/>
<stop offset="0.7091" stop-color="#F9D876"/>
<stop offset="1" stop-color="#BA7418"/>
</linearGradient>
<linearGradient id="paint38_linear_4871_729" x1="16.4466" y1="47.6248" x2="30.5641" y2="47.6248" gradientUnits="userSpaceOnUse">
<stop stop-color="#BA7418"/>
<stop offset="0.1534" stop-color="#DCA94A"/>
<stop offset="0.2701" stop-color="#F1CB6A"/>
<stop offset="0.3333" stop-color="#F9D876"/>
<stop offset="0.38" stop-color="#FBDD8B"/>
<stop offset="0.4675" stop-color="#FEE6AC"/>
<stop offset="0.5152" stop-color="#FFE9B9"/>
<stop offset="0.5649" stop-color="#FDE4A4"/>
<stop offset="0.6583" stop-color="#FADB83"/>
<stop offset="0.7091" stop-color="#F9D876"/>
<stop offset="1" stop-color="#BA7418"/>
</linearGradient>
<linearGradient id="paint39_linear_4871_729" x1="21.8303" y1="38.2997" x2="36.068" y2="38.2997" gradientUnits="userSpaceOnUse">
<stop stop-color="#BA7418"/>
<stop offset="0.1534" stop-color="#DCA94A"/>
<stop offset="0.2701" stop-color="#F1CB6A"/>
<stop offset="0.3333" stop-color="#F9D876"/>
<stop offset="0.38" stop-color="#FBDD8B"/>
<stop offset="0.4675" stop-color="#FEE6AC"/>
<stop offset="0.5152" stop-color="#FFE9B9"/>
<stop offset="0.5649" stop-color="#FDE4A4"/>
<stop offset="0.6583" stop-color="#FADB83"/>
<stop offset="0.7091" stop-color="#F9D876"/>
<stop offset="1" stop-color="#BA7418"/>
</linearGradient>
<linearGradient id="paint40_linear_4871_729" x1="28.9831" y1="29.6248" x2="42.7339" y2="29.6248" gradientUnits="userSpaceOnUse">
<stop stop-color="#BA7418"/>
<stop offset="0.1534" stop-color="#DCA94A"/>
<stop offset="0.2701" stop-color="#F1CB6A"/>
<stop offset="0.3333" stop-color="#F9D876"/>
<stop offset="0.38" stop-color="#FBDD8B"/>
<stop offset="0.4675" stop-color="#FEE6AC"/>
<stop offset="0.5152" stop-color="#FFE9B9"/>
<stop offset="0.5649" stop-color="#FDE4A4"/>
<stop offset="0.6583" stop-color="#FADB83"/>
<stop offset="0.7091" stop-color="#F9D876"/>
<stop offset="1" stop-color="#BA7418"/>
</linearGradient>
<linearGradient id="paint41_linear_4871_729" x1="37.6067" y1="23.6639" x2="50.3499" y2="23.6639" gradientUnits="userSpaceOnUse">
<stop stop-color="#BA7418"/>
<stop offset="0.1534" stop-color="#DCA94A"/>
<stop offset="0.2701" stop-color="#F1CB6A"/>
<stop offset="0.3333" stop-color="#F9D876"/>
<stop offset="0.38" stop-color="#FBDD8B"/>
<stop offset="0.4675" stop-color="#FEE6AC"/>
<stop offset="0.5152" stop-color="#FFE9B9"/>
<stop offset="0.5649" stop-color="#FDE4A4"/>
<stop offset="0.6583" stop-color="#FADB83"/>
<stop offset="0.7091" stop-color="#F9D876"/>
<stop offset="1" stop-color="#BA7418"/>
</linearGradient>
<linearGradient id="paint42_linear_4871_729" x1="47.3399" y1="20.0828" x2="58.6732" y2="20.0828" gradientUnits="userSpaceOnUse">
<stop stop-color="#BA7418"/>
<stop offset="0.1534" stop-color="#DCA94A"/>
<stop offset="0.2701" stop-color="#F1CB6A"/>
<stop offset="0.3333" stop-color="#F9D876"/>
<stop offset="0.38" stop-color="#FBDD8B"/>
<stop offset="0.4675" stop-color="#FEE6AC"/>
<stop offset="0.5152" stop-color="#FFE9B9"/>
<stop offset="0.5649" stop-color="#FDE4A4"/>
<stop offset="0.6583" stop-color="#FADB83"/>
<stop offset="0.7091" stop-color="#F9D876"/>
<stop offset="1" stop-color="#BA7418"/>
</linearGradient>
<linearGradient id="paint43_linear_4871_729" x1="18.1173" y1="135.666" x2="45.2062" y2="135.666" gradientUnits="userSpaceOnUse">
<stop stop-color="#BA7418"/>
<stop offset="0.1534" stop-color="#DCA94A"/>
<stop offset="0.2701" stop-color="#F1CB6A"/>
<stop offset="0.3333" stop-color="#F9D876"/>
<stop offset="0.38" stop-color="#FBDD8B"/>
<stop offset="0.4675" stop-color="#FEE6AC"/>
<stop offset="0.5152" stop-color="#FFE9B9"/>
<stop offset="0.5649" stop-color="#FDE4A4"/>
<stop offset="0.6583" stop-color="#FADB83"/>
<stop offset="0.7091" stop-color="#F9D876"/>
<stop offset="1" stop-color="#BA7418"/>
</linearGradient>
<linearGradient id="paint44_linear_4871_729" x1="10.3792" y1="126.591" x2="35.4502" y2="126.591" gradientUnits="userSpaceOnUse">
<stop stop-color="#BA7418"/>
<stop offset="0.1534" stop-color="#DCA94A"/>
<stop offset="0.2701" stop-color="#F1CB6A"/>
<stop offset="0.3333" stop-color="#F9D876"/>
<stop offset="0.38" stop-color="#FBDD8B"/>
<stop offset="0.4675" stop-color="#FEE6AC"/>
<stop offset="0.5152" stop-color="#FFE9B9"/>
<stop offset="0.5649" stop-color="#FDE4A4"/>
<stop offset="0.6583" stop-color="#FADB83"/>
<stop offset="0.7091" stop-color="#F9D876"/>
<stop offset="1" stop-color="#BA7418"/>
</linearGradient>
<linearGradient id="paint45_linear_4871_729" x1="4.67238" y1="116.061" x2="26.8976" y2="116.061" gradientUnits="userSpaceOnUse">
<stop stop-color="#BA7418"/>
<stop offset="0.1534" stop-color="#DCA94A"/>
<stop offset="0.2701" stop-color="#F1CB6A"/>
<stop offset="0.3333" stop-color="#F9D876"/>
<stop offset="0.38" stop-color="#FBDD8B"/>
<stop offset="0.4675" stop-color="#FEE6AC"/>
<stop offset="0.5152" stop-color="#FFE9B9"/>
<stop offset="0.5649" stop-color="#FDE4A4"/>
<stop offset="0.6583" stop-color="#FADB83"/>
<stop offset="0.7091" stop-color="#F9D876"/>
<stop offset="1" stop-color="#BA7418"/>
</linearGradient>
<linearGradient id="paint46_linear_4871_729" x1="1.18122" y1="104.121" x2="19.8933" y2="104.121" gradientUnits="userSpaceOnUse">
<stop stop-color="#BA7418"/>
<stop offset="0.1534" stop-color="#DCA94A"/>
<stop offset="0.2701" stop-color="#F1CB6A"/>
<stop offset="0.3333" stop-color="#F9D876"/>
<stop offset="0.38" stop-color="#FBDD8B"/>
<stop offset="0.4675" stop-color="#FEE6AC"/>
<stop offset="0.5152" stop-color="#FFE9B9"/>
<stop offset="0.5649" stop-color="#FDE4A4"/>
<stop offset="0.6583" stop-color="#FADB83"/>
<stop offset="0.7091" stop-color="#F9D876"/>
<stop offset="1" stop-color="#BA7418"/>
</linearGradient>
<linearGradient id="paint47_linear_4871_729" x1="0.000893918" y1="91.2483" x2="14.7642" y2="91.2483" gradientUnits="userSpaceOnUse">
<stop stop-color="#BA7418"/>
<stop offset="0.1534" stop-color="#DCA94A"/>
<stop offset="0.2701" stop-color="#F1CB6A"/>
<stop offset="0.3333" stop-color="#F9D876"/>
<stop offset="0.38" stop-color="#FBDD8B"/>
<stop offset="0.4675" stop-color="#FEE6AC"/>
<stop offset="0.5152" stop-color="#FFE9B9"/>
<stop offset="0.5649" stop-color="#FDE4A4"/>
<stop offset="0.6583" stop-color="#FADB83"/>
<stop offset="0.7091" stop-color="#F9D876"/>
<stop offset="1" stop-color="#BA7418"/>
</linearGradient>
<linearGradient id="paint48_linear_4871_729" x1="1.11476" y1="77.9542" x2="11.8136" y2="77.9542" gradientUnits="userSpaceOnUse">
<stop stop-color="#BA7418"/>
<stop offset="0.1534" stop-color="#DCA94A"/>
<stop offset="0.2701" stop-color="#F1CB6A"/>
<stop offset="0.3333" stop-color="#F9D876"/>
<stop offset="0.38" stop-color="#FBDD8B"/>
<stop offset="0.4675" stop-color="#FEE6AC"/>
<stop offset="0.5152" stop-color="#FFE9B9"/>
<stop offset="0.5649" stop-color="#FDE4A4"/>
<stop offset="0.6583" stop-color="#FADB83"/>
<stop offset="0.7091" stop-color="#F9D876"/>
<stop offset="1" stop-color="#BA7418"/>
</linearGradient>
<linearGradient id="paint49_linear_4871_729" x1="4.42517" y1="64.7253" x2="11.29" y2="64.7253" gradientUnits="userSpaceOnUse">
<stop stop-color="#BA7418"/>
<stop offset="0.1534" stop-color="#DCA94A"/>
<stop offset="0.2701" stop-color="#F1CB6A"/>
<stop offset="0.3333" stop-color="#F9D876"/>
<stop offset="0.38" stop-color="#FBDD8B"/>
<stop offset="0.4675" stop-color="#FEE6AC"/>
<stop offset="0.5152" stop-color="#FFE9B9"/>
<stop offset="0.5649" stop-color="#FDE4A4"/>
<stop offset="0.6583" stop-color="#FADB83"/>
<stop offset="0.7091" stop-color="#F9D876"/>
<stop offset="1" stop-color="#BA7418"/>
</linearGradient>
<linearGradient id="paint50_linear_4871_729" x1="9.6415" y1="52.0933" x2="13.4178" y2="52.0933" gradientUnits="userSpaceOnUse">
<stop stop-color="#BA7418"/>
<stop offset="0.1534" stop-color="#DCA94A"/>
<stop offset="0.2701" stop-color="#F1CB6A"/>
<stop offset="0.3333" stop-color="#F9D876"/>
<stop offset="0.38" stop-color="#FBDD8B"/>
<stop offset="0.4675" stop-color="#FEE6AC"/>
<stop offset="0.5152" stop-color="#FFE9B9"/>
<stop offset="0.5649" stop-color="#FDE4A4"/>
<stop offset="0.6583" stop-color="#FADB83"/>
<stop offset="0.7091" stop-color="#F9D876"/>
<stop offset="1" stop-color="#BA7418"/>
</linearGradient>
<linearGradient id="paint51_linear_4871_729" x1="15.1183" y1="40.5492" x2="17.7114" y2="40.5492" gradientUnits="userSpaceOnUse">
<stop stop-color="#BA7418"/>
<stop offset="0.1534" stop-color="#DCA94A"/>
<stop offset="0.2701" stop-color="#F1CB6A"/>
<stop offset="0.3333" stop-color="#F9D876"/>
<stop offset="0.38" stop-color="#FBDD8B"/>
<stop offset="0.4675" stop-color="#FEE6AC"/>
<stop offset="0.5152" stop-color="#FFE9B9"/>
<stop offset="0.5649" stop-color="#FDE4A4"/>
<stop offset="0.6583" stop-color="#FADB83"/>
<stop offset="0.7091" stop-color="#F9D876"/>
<stop offset="1" stop-color="#BA7418"/>
</linearGradient>
<linearGradient id="paint52_linear_4871_729" x1="21.221" y1="30.5083" x2="25.6799" y2="30.5083" gradientUnits="userSpaceOnUse">
<stop stop-color="#BA7418"/>
<stop offset="0.1534" stop-color="#DCA94A"/>
<stop offset="0.2701" stop-color="#F1CB6A"/>
<stop offset="0.3333" stop-color="#F9D876"/>
<stop offset="0.38" stop-color="#FBDD8B"/>
<stop offset="0.4675" stop-color="#FEE6AC"/>
<stop offset="0.5152" stop-color="#FFE9B9"/>
<stop offset="0.5649" stop-color="#FDE4A4"/>
<stop offset="0.6583" stop-color="#FADB83"/>
<stop offset="0.7091" stop-color="#F9D876"/>
<stop offset="1" stop-color="#BA7418"/>
</linearGradient>
<linearGradient id="paint53_linear_4871_729" x1="28.54" y1="22.3544" x2="35.5521" y2="22.3544" gradientUnits="userSpaceOnUse">
<stop stop-color="#BA7418"/>
<stop offset="0.1534" stop-color="#DCA94A"/>
<stop offset="0.2701" stop-color="#F1CB6A"/>
<stop offset="0.3333" stop-color="#F9D876"/>
<stop offset="0.38" stop-color="#FBDD8B"/>
<stop offset="0.4675" stop-color="#FEE6AC"/>
<stop offset="0.5152" stop-color="#FFE9B9"/>
<stop offset="0.5649" stop-color="#FDE4A4"/>
<stop offset="0.6583" stop-color="#FADB83"/>
<stop offset="0.7091" stop-color="#F9D876"/>
<stop offset="1" stop-color="#BA7418"/>
</linearGradient>
<linearGradient id="paint54_linear_4871_729" x1="37.3192" y1="16.3835" x2="46.2333" y2="16.3835" gradientUnits="userSpaceOnUse">
<stop stop-color="#BA7418"/>
<stop offset="0.1534" stop-color="#DCA94A"/>
<stop offset="0.2701" stop-color="#F1CB6A"/>
<stop offset="0.3333" stop-color="#F9D876"/>
<stop offset="0.38" stop-color="#FBDD8B"/>
<stop offset="0.4675" stop-color="#FEE6AC"/>
<stop offset="0.5152" stop-color="#FFE9B9"/>
<stop offset="0.5649" stop-color="#FDE4A4"/>
<stop offset="0.6583" stop-color="#FADB83"/>
<stop offset="0.7091" stop-color="#F9D876"/>
<stop offset="1" stop-color="#BA7418"/>
</linearGradient>
<linearGradient id="paint55_linear_4871_729" x1="47.1896" y1="12.8409" x2="57.3162" y2="12.8409" gradientUnits="userSpaceOnUse">
<stop stop-color="#BA7418"/>
<stop offset="0.1534" stop-color="#DCA94A"/>
<stop offset="0.2701" stop-color="#F1CB6A"/>
<stop offset="0.3333" stop-color="#F9D876"/>
<stop offset="0.38" stop-color="#FBDD8B"/>
<stop offset="0.4675" stop-color="#FEE6AC"/>
<stop offset="0.5152" stop-color="#FFE9B9"/>
<stop offset="0.5649" stop-color="#FDE4A4"/>
<stop offset="0.6583" stop-color="#FADB83"/>
<stop offset="0.7091" stop-color="#F9D876"/>
<stop offset="1" stop-color="#BA7418"/>
</linearGradient>
<linearGradient id="paint56_linear_4871_729" x1="50.1007" y1="14.7499" x2="63.5789" y2="14.7499" gradientUnits="userSpaceOnUse">
<stop stop-color="#BA7418"/>
<stop offset="0.1534" stop-color="#DCA94A"/>
<stop offset="0.2701" stop-color="#F1CB6A"/>
<stop offset="0.3333" stop-color="#F9D876"/>
<stop offset="0.38" stop-color="#FBDD8B"/>
<stop offset="0.4675" stop-color="#FEE6AC"/>
<stop offset="0.5152" stop-color="#FFE9B9"/>
<stop offset="0.5649" stop-color="#FDE4A4"/>
<stop offset="0.6583" stop-color="#FADB83"/>
<stop offset="0.7091" stop-color="#F9D876"/>
<stop offset="1" stop-color="#BA7418"/>
</linearGradient>
<linearGradient id="paint57_linear_4871_729" x1="48.2839" y1="16.7058" x2="61.788" y2="16.7058" gradientUnits="userSpaceOnUse">
<stop stop-color="#BA7418"/>
<stop offset="0.1534" stop-color="#DCA94A"/>
<stop offset="0.2701" stop-color="#F1CB6A"/>
<stop offset="0.3333" stop-color="#F9D876"/>
<stop offset="0.38" stop-color="#FBDD8B"/>
<stop offset="0.4675" stop-color="#FEE6AC"/>
<stop offset="0.5152" stop-color="#FFE9B9"/>
<stop offset="0.5649" stop-color="#FDE4A4"/>
<stop offset="0.6583" stop-color="#FADB83"/>
<stop offset="0.7091" stop-color="#F9D876"/>
<stop offset="1" stop-color="#BA7418"/>
</linearGradient>
</defs>
</svg>
